<svg width="886" height="270" viewBox="0 0 886 270" fill="none" xmlns="http://www.w3.org/2000/svg">
<mask id="path-1-outside-1_1_116" maskUnits="userSpaceOnUse" x="128.524" y="125" width="559" height="79" fill="black">
<rect fill="white" x="128.524" y="125" width="559" height="79"/>
<path d="M142.876 202.536C139.292 202.536 136.316 201.448 133.948 199.272C131.644 197.032 130.428 194.152 130.3 190.632V161.256H139.228V187.464C139.356 189.64 139.964 191.4 141.052 192.744C142.204 194.088 143.996 194.792 146.428 194.856C148.668 194.856 150.652 194.216 152.38 192.936C154.172 191.592 155.612 189.8 156.7 187.56C157.788 185.256 158.332 182.664 158.332 179.784V161.256H167.26V201H159.1L158.332 191.208L158.812 192.936C158.044 194.792 156.86 196.456 155.26 197.928C153.724 199.336 151.9 200.456 149.788 201.288C147.676 202.12 145.372 202.536 142.876 202.536ZM182.706 161.256H191.634V201H182.706V161.256ZM182.034 146.856C182.034 145.448 182.578 144.264 183.666 143.304C184.818 142.344 186.066 141.864 187.41 141.864C188.754 141.864 189.938 142.344 190.962 143.304C192.05 144.264 192.594 145.448 192.594 146.856C192.594 148.328 192.05 149.544 190.962 150.504C189.938 151.4 188.754 151.848 187.41 151.848C186.066 151.848 184.818 151.368 183.666 150.408C182.578 149.448 182.034 148.264 182.034 146.856ZM239.337 197.352C237.545 198.76 235.401 199.88 232.905 200.712C230.409 201.544 227.913 201.96 225.417 201.96C221.065 201.96 217.257 201.096 213.993 199.368C210.729 197.64 208.169 195.24 206.313 192.168C204.521 189.032 203.625 185.352 203.625 181.128C203.625 176.904 204.585 173.224 206.505 170.088C208.489 166.952 211.049 164.552 214.185 162.888C217.385 161.16 220.809 160.296 224.457 160.296C227.657 160.296 230.505 160.744 233.001 161.64C235.561 162.536 237.737 163.752 239.529 165.288L235.113 171.048C233.961 170.152 232.553 169.352 230.889 168.648C229.225 167.944 227.337 167.592 225.225 167.592C222.921 167.592 220.777 168.2 218.793 169.416C216.873 170.568 215.337 172.168 214.185 174.216C213.097 176.264 212.553 178.568 212.553 181.128C212.553 183.56 213.129 185.832 214.281 187.944C215.433 189.992 217.033 191.624 219.081 192.84C221.129 193.992 223.465 194.568 226.089 194.568C227.817 194.568 229.385 194.312 230.793 193.8C232.265 193.288 233.577 192.584 234.729 191.688L239.337 197.352ZM250.862 201V126.696H259.79V201H250.862ZM269.39 174.6L287.63 201H277.166L263.438 179.592L269.39 174.6ZM257.006 188.328L256.142 179.784L280.238 160.392L285.71 165.096L257.006 188.328ZM318.739 131.592C325.715 131.592 331.187 133.032 335.155 135.912C339.187 138.728 341.203 143.144 341.203 149.16C341.203 152.808 340.371 155.976 338.707 158.664C337.043 161.352 334.707 163.464 331.699 165C328.755 166.536 325.267 167.4 321.235 167.592L319.891 162.792C324.563 162.92 328.755 163.752 332.467 165.288C336.179 166.824 339.123 168.968 341.299 171.72C343.475 174.472 344.563 177.736 344.563 181.512C344.563 184.968 343.923 187.944 342.643 190.44C341.363 192.872 339.635 194.888 337.459 196.488C335.283 198.024 332.819 199.176 330.067 199.944C327.315 200.648 324.467 201 321.523 201H300.883V131.592H318.739ZM320.659 162.024C324.499 162.024 327.283 160.968 329.011 158.856C330.739 156.68 331.603 154.056 331.603 150.984C331.603 147.336 330.483 144.68 328.243 143.016C326.003 141.352 322.995 140.52 319.219 140.52H310.195V162.024H320.659ZM321.043 192.36C323.603 192.36 325.939 191.976 328.051 191.208C330.227 190.44 331.923 189.256 333.139 187.656C334.419 186.056 335.059 184.04 335.059 181.608C335.059 178.92 334.323 176.808 332.851 175.272C331.443 173.736 329.619 172.648 327.379 172.008C325.139 171.304 322.835 170.952 320.467 170.952H310.195V192.36H321.043ZM354.563 180.744C354.563 176.776 355.491 173.192 357.347 169.992C359.267 166.792 361.891 164.264 365.219 162.408C368.547 160.552 372.323 159.624 376.547 159.624C380.899 159.624 384.707 160.552 387.971 162.408C391.235 164.264 393.763 166.792 395.555 169.992C397.347 173.192 398.243 176.776 398.243 180.744C398.243 184.712 397.347 188.328 395.555 191.592C393.763 194.792 391.203 197.32 387.875 199.176C384.611 201.032 380.803 201.96 376.451 201.96C372.227 201.96 368.451 201.096 365.123 199.368C361.859 197.576 359.267 195.112 357.347 191.976C355.491 188.776 354.563 185.032 354.563 180.744ZM363.491 180.84C363.491 183.4 364.067 185.736 365.219 187.848C366.371 189.896 367.907 191.528 369.827 192.744C371.811 193.96 373.987 194.568 376.355 194.568C378.851 194.568 381.059 193.96 382.979 192.744C384.963 191.528 386.499 189.896 387.587 187.848C388.675 185.736 389.219 183.4 389.219 180.84C389.219 178.28 388.675 175.976 387.587 173.928C386.499 171.816 384.963 170.152 382.979 168.936C381.059 167.656 378.851 167.016 376.355 167.016C373.923 167.016 371.715 167.656 369.731 168.936C367.811 170.216 366.275 171.912 365.123 174.024C364.035 176.072 363.491 178.344 363.491 180.84ZM406.875 180.744C406.875 176.776 407.803 173.192 409.659 169.992C411.579 166.792 414.203 164.264 417.531 162.408C420.859 160.552 424.635 159.624 428.859 159.624C433.211 159.624 437.019 160.552 440.283 162.408C443.547 164.264 446.075 166.792 447.867 169.992C449.659 173.192 450.555 176.776 450.555 180.744C450.555 184.712 449.659 188.328 447.867 191.592C446.075 194.792 443.515 197.32 440.187 199.176C436.923 201.032 433.115 201.96 428.763 201.96C424.539 201.96 420.763 201.096 417.435 199.368C414.171 197.576 411.579 195.112 409.659 191.976C407.803 188.776 406.875 185.032 406.875 180.744ZM415.803 180.84C415.803 183.4 416.379 185.736 417.531 187.848C418.683 189.896 420.219 191.528 422.139 192.744C424.123 193.96 426.299 194.568 428.667 194.568C431.163 194.568 433.371 193.96 435.291 192.744C437.275 191.528 438.811 189.896 439.899 187.848C440.987 185.736 441.531 183.4 441.531 180.84C441.531 178.28 440.987 175.976 439.899 173.928C438.811 171.816 437.275 170.152 435.291 168.936C433.371 167.656 431.163 167.016 428.667 167.016C426.235 167.016 424.027 167.656 422.043 168.936C420.123 170.216 418.587 171.912 417.435 174.024C416.347 176.072 415.803 178.344 415.803 180.84ZM462.644 201V126.696H471.572V201H462.644ZM481.172 174.6L499.412 201H488.948L475.22 179.592L481.172 174.6ZM468.788 188.328L467.924 179.784L492.02 160.392L497.492 165.096L468.788 188.328ZM505.944 195.912C505.944 194.504 506.456 193.32 507.48 192.36C508.568 191.336 509.752 190.824 511.032 190.824C512.184 190.824 513.272 191.336 514.296 192.36C515.384 193.32 515.928 194.504 515.928 195.912C515.928 197.448 515.384 198.696 514.296 199.656C513.272 200.552 512.184 201 511.032 201C509.752 201 508.568 200.552 507.48 199.656C506.456 198.696 505.944 197.448 505.944 195.912ZM558.837 197.352C557.045 198.76 554.901 199.88 552.405 200.712C549.909 201.544 547.413 201.96 544.917 201.96C540.565 201.96 536.757 201.096 533.493 199.368C530.229 197.64 527.669 195.24 525.813 192.168C524.021 189.032 523.125 185.352 523.125 181.128C523.125 176.904 524.085 173.224 526.005 170.088C527.989 166.952 530.549 164.552 533.685 162.888C536.885 161.16 540.309 160.296 543.957 160.296C547.157 160.296 550.005 160.744 552.501 161.64C555.061 162.536 557.237 163.752 559.029 165.288L554.613 171.048C553.461 170.152 552.053 169.352 550.389 168.648C548.725 167.944 546.837 167.592 544.725 167.592C542.421 167.592 540.277 168.2 538.293 169.416C536.373 170.568 534.837 172.168 533.685 174.216C532.597 176.264 532.053 178.568 532.053 181.128C532.053 183.56 532.629 185.832 533.781 187.944C534.933 189.992 536.533 191.624 538.581 192.84C540.629 193.992 542.965 194.568 545.589 194.568C547.317 194.568 548.885 194.312 550.293 193.8C551.765 193.288 553.077 192.584 554.229 191.688L558.837 197.352ZM566.906 180.744C566.906 176.776 567.834 173.192 569.69 169.992C571.61 166.792 574.234 164.264 577.562 162.408C580.89 160.552 584.666 159.624 588.89 159.624C593.242 159.624 597.05 160.552 600.314 162.408C603.578 164.264 606.106 166.792 607.898 169.992C609.69 173.192 610.586 176.776 610.586 180.744C610.586 184.712 609.69 188.328 607.898 191.592C606.106 194.792 603.546 197.32 600.218 199.176C596.954 201.032 593.146 201.96 588.794 201.96C584.57 201.96 580.794 201.096 577.466 199.368C574.202 197.576 571.61 195.112 569.69 191.976C567.834 188.776 566.906 185.032 566.906 180.744ZM575.834 180.84C575.834 183.4 576.41 185.736 577.562 187.848C578.714 189.896 580.25 191.528 582.17 192.744C584.154 193.96 586.33 194.568 588.698 194.568C591.194 194.568 593.402 193.96 595.322 192.744C597.306 191.528 598.842 189.896 599.93 187.848C601.018 185.736 601.562 183.4 601.562 180.84C601.562 178.28 601.018 175.976 599.93 173.928C598.842 171.816 597.306 170.152 595.322 168.936C593.402 167.656 591.194 167.016 588.698 167.016C586.266 167.016 584.058 167.656 582.074 168.936C580.154 170.216 578.618 171.912 577.466 174.024C576.378 176.072 575.834 178.344 575.834 180.84ZM630.643 161.256L631.411 170.184L631.027 169.416C632.499 166.408 634.579 164.04 637.267 162.312C640.019 160.584 643.155 159.72 646.675 159.72C648.915 159.72 650.899 160.072 652.627 160.776C654.355 161.48 655.763 162.504 656.851 163.848C658.003 165.128 658.739 166.728 659.059 168.648L658.579 168.936C660.115 166.056 662.227 163.816 664.915 162.216C667.667 160.552 670.547 159.72 673.555 159.72C677.459 159.72 680.531 160.84 682.771 163.08C685.075 165.256 686.259 168.104 686.323 171.624V201H677.395V174.792C677.331 172.744 676.819 171.048 675.859 169.704C674.963 168.296 673.363 167.528 671.059 167.4C668.755 167.4 666.675 168.104 664.819 169.512C663.027 170.92 661.619 172.744 660.595 174.984C659.571 177.16 659.027 179.528 658.963 182.088V201H650.035V174.792C649.971 172.744 649.427 171.048 648.403 169.704C647.443 168.296 645.811 167.528 643.507 167.4C641.139 167.4 639.059 168.104 637.267 169.512C635.475 170.92 634.067 172.744 633.043 174.984C632.083 177.224 631.603 179.624 631.603 182.184V201H622.675V161.256H630.643Z"/>
</mask>
<path d="M142.876 202.536C139.292 202.536 136.316 201.448 133.948 199.272C131.644 197.032 130.428 194.152 130.3 190.632V161.256H139.228V187.464C139.356 189.64 139.964 191.4 141.052 192.744C142.204 194.088 143.996 194.792 146.428 194.856C148.668 194.856 150.652 194.216 152.38 192.936C154.172 191.592 155.612 189.8 156.7 187.56C157.788 185.256 158.332 182.664 158.332 179.784V161.256H167.26V201H159.1L158.332 191.208L158.812 192.936C158.044 194.792 156.86 196.456 155.26 197.928C153.724 199.336 151.9 200.456 149.788 201.288C147.676 202.12 145.372 202.536 142.876 202.536ZM182.706 161.256H191.634V201H182.706V161.256ZM182.034 146.856C182.034 145.448 182.578 144.264 183.666 143.304C184.818 142.344 186.066 141.864 187.41 141.864C188.754 141.864 189.938 142.344 190.962 143.304C192.05 144.264 192.594 145.448 192.594 146.856C192.594 148.328 192.05 149.544 190.962 150.504C189.938 151.4 188.754 151.848 187.41 151.848C186.066 151.848 184.818 151.368 183.666 150.408C182.578 149.448 182.034 148.264 182.034 146.856ZM239.337 197.352C237.545 198.76 235.401 199.88 232.905 200.712C230.409 201.544 227.913 201.96 225.417 201.96C221.065 201.96 217.257 201.096 213.993 199.368C210.729 197.64 208.169 195.24 206.313 192.168C204.521 189.032 203.625 185.352 203.625 181.128C203.625 176.904 204.585 173.224 206.505 170.088C208.489 166.952 211.049 164.552 214.185 162.888C217.385 161.16 220.809 160.296 224.457 160.296C227.657 160.296 230.505 160.744 233.001 161.64C235.561 162.536 237.737 163.752 239.529 165.288L235.113 171.048C233.961 170.152 232.553 169.352 230.889 168.648C229.225 167.944 227.337 167.592 225.225 167.592C222.921 167.592 220.777 168.2 218.793 169.416C216.873 170.568 215.337 172.168 214.185 174.216C213.097 176.264 212.553 178.568 212.553 181.128C212.553 183.56 213.129 185.832 214.281 187.944C215.433 189.992 217.033 191.624 219.081 192.84C221.129 193.992 223.465 194.568 226.089 194.568C227.817 194.568 229.385 194.312 230.793 193.8C232.265 193.288 233.577 192.584 234.729 191.688L239.337 197.352ZM250.862 201V126.696H259.79V201H250.862ZM269.39 174.6L287.63 201H277.166L263.438 179.592L269.39 174.6ZM257.006 188.328L256.142 179.784L280.238 160.392L285.71 165.096L257.006 188.328ZM318.739 131.592C325.715 131.592 331.187 133.032 335.155 135.912C339.187 138.728 341.203 143.144 341.203 149.16C341.203 152.808 340.371 155.976 338.707 158.664C337.043 161.352 334.707 163.464 331.699 165C328.755 166.536 325.267 167.4 321.235 167.592L319.891 162.792C324.563 162.92 328.755 163.752 332.467 165.288C336.179 166.824 339.123 168.968 341.299 171.72C343.475 174.472 344.563 177.736 344.563 181.512C344.563 184.968 343.923 187.944 342.643 190.44C341.363 192.872 339.635 194.888 337.459 196.488C335.283 198.024 332.819 199.176 330.067 199.944C327.315 200.648 324.467 201 321.523 201H300.883V131.592H318.739ZM320.659 162.024C324.499 162.024 327.283 160.968 329.011 158.856C330.739 156.68 331.603 154.056 331.603 150.984C331.603 147.336 330.483 144.68 328.243 143.016C326.003 141.352 322.995 140.52 319.219 140.52H310.195V162.024H320.659ZM321.043 192.36C323.603 192.36 325.939 191.976 328.051 191.208C330.227 190.44 331.923 189.256 333.139 187.656C334.419 186.056 335.059 184.04 335.059 181.608C335.059 178.92 334.323 176.808 332.851 175.272C331.443 173.736 329.619 172.648 327.379 172.008C325.139 171.304 322.835 170.952 320.467 170.952H310.195V192.36H321.043ZM354.563 180.744C354.563 176.776 355.491 173.192 357.347 169.992C359.267 166.792 361.891 164.264 365.219 162.408C368.547 160.552 372.323 159.624 376.547 159.624C380.899 159.624 384.707 160.552 387.971 162.408C391.235 164.264 393.763 166.792 395.555 169.992C397.347 173.192 398.243 176.776 398.243 180.744C398.243 184.712 397.347 188.328 395.555 191.592C393.763 194.792 391.203 197.32 387.875 199.176C384.611 201.032 380.803 201.96 376.451 201.96C372.227 201.96 368.451 201.096 365.123 199.368C361.859 197.576 359.267 195.112 357.347 191.976C355.491 188.776 354.563 185.032 354.563 180.744ZM363.491 180.84C363.491 183.4 364.067 185.736 365.219 187.848C366.371 189.896 367.907 191.528 369.827 192.744C371.811 193.96 373.987 194.568 376.355 194.568C378.851 194.568 381.059 193.96 382.979 192.744C384.963 191.528 386.499 189.896 387.587 187.848C388.675 185.736 389.219 183.4 389.219 180.84C389.219 178.28 388.675 175.976 387.587 173.928C386.499 171.816 384.963 170.152 382.979 168.936C381.059 167.656 378.851 167.016 376.355 167.016C373.923 167.016 371.715 167.656 369.731 168.936C367.811 170.216 366.275 171.912 365.123 174.024C364.035 176.072 363.491 178.344 363.491 180.84ZM406.875 180.744C406.875 176.776 407.803 173.192 409.659 169.992C411.579 166.792 414.203 164.264 417.531 162.408C420.859 160.552 424.635 159.624 428.859 159.624C433.211 159.624 437.019 160.552 440.283 162.408C443.547 164.264 446.075 166.792 447.867 169.992C449.659 173.192 450.555 176.776 450.555 180.744C450.555 184.712 449.659 188.328 447.867 191.592C446.075 194.792 443.515 197.32 440.187 199.176C436.923 201.032 433.115 201.96 428.763 201.96C424.539 201.96 420.763 201.096 417.435 199.368C414.171 197.576 411.579 195.112 409.659 191.976C407.803 188.776 406.875 185.032 406.875 180.744ZM415.803 180.84C415.803 183.4 416.379 185.736 417.531 187.848C418.683 189.896 420.219 191.528 422.139 192.744C424.123 193.96 426.299 194.568 428.667 194.568C431.163 194.568 433.371 193.96 435.291 192.744C437.275 191.528 438.811 189.896 439.899 187.848C440.987 185.736 441.531 183.4 441.531 180.84C441.531 178.28 440.987 175.976 439.899 173.928C438.811 171.816 437.275 170.152 435.291 168.936C433.371 167.656 431.163 167.016 428.667 167.016C426.235 167.016 424.027 167.656 422.043 168.936C420.123 170.216 418.587 171.912 417.435 174.024C416.347 176.072 415.803 178.344 415.803 180.84ZM462.644 201V126.696H471.572V201H462.644ZM481.172 174.6L499.412 201H488.948L475.22 179.592L481.172 174.6ZM468.788 188.328L467.924 179.784L492.02 160.392L497.492 165.096L468.788 188.328ZM505.944 195.912C505.944 194.504 506.456 193.32 507.48 192.36C508.568 191.336 509.752 190.824 511.032 190.824C512.184 190.824 513.272 191.336 514.296 192.36C515.384 193.32 515.928 194.504 515.928 195.912C515.928 197.448 515.384 198.696 514.296 199.656C513.272 200.552 512.184 201 511.032 201C509.752 201 508.568 200.552 507.48 199.656C506.456 198.696 505.944 197.448 505.944 195.912ZM558.837 197.352C557.045 198.76 554.901 199.88 552.405 200.712C549.909 201.544 547.413 201.96 544.917 201.96C540.565 201.96 536.757 201.096 533.493 199.368C530.229 197.64 527.669 195.24 525.813 192.168C524.021 189.032 523.125 185.352 523.125 181.128C523.125 176.904 524.085 173.224 526.005 170.088C527.989 166.952 530.549 164.552 533.685 162.888C536.885 161.16 540.309 160.296 543.957 160.296C547.157 160.296 550.005 160.744 552.501 161.64C555.061 162.536 557.237 163.752 559.029 165.288L554.613 171.048C553.461 170.152 552.053 169.352 550.389 168.648C548.725 167.944 546.837 167.592 544.725 167.592C542.421 167.592 540.277 168.2 538.293 169.416C536.373 170.568 534.837 172.168 533.685 174.216C532.597 176.264 532.053 178.568 532.053 181.128C532.053 183.56 532.629 185.832 533.781 187.944C534.933 189.992 536.533 191.624 538.581 192.84C540.629 193.992 542.965 194.568 545.589 194.568C547.317 194.568 548.885 194.312 550.293 193.8C551.765 193.288 553.077 192.584 554.229 191.688L558.837 197.352ZM566.906 180.744C566.906 176.776 567.834 173.192 569.69 169.992C571.61 166.792 574.234 164.264 577.562 162.408C580.89 160.552 584.666 159.624 588.89 159.624C593.242 159.624 597.05 160.552 600.314 162.408C603.578 164.264 606.106 166.792 607.898 169.992C609.69 173.192 610.586 176.776 610.586 180.744C610.586 184.712 609.69 188.328 607.898 191.592C606.106 194.792 603.546 197.32 600.218 199.176C596.954 201.032 593.146 201.96 588.794 201.96C584.57 201.96 580.794 201.096 577.466 199.368C574.202 197.576 571.61 195.112 569.69 191.976C567.834 188.776 566.906 185.032 566.906 180.744ZM575.834 180.84C575.834 183.4 576.41 185.736 577.562 187.848C578.714 189.896 580.25 191.528 582.17 192.744C584.154 193.96 586.33 194.568 588.698 194.568C591.194 194.568 593.402 193.96 595.322 192.744C597.306 191.528 598.842 189.896 599.93 187.848C601.018 185.736 601.562 183.4 601.562 180.84C601.562 178.28 601.018 175.976 599.93 173.928C598.842 171.816 597.306 170.152 595.322 168.936C593.402 167.656 591.194 167.016 588.698 167.016C586.266 167.016 584.058 167.656 582.074 168.936C580.154 170.216 578.618 171.912 577.466 174.024C576.378 176.072 575.834 178.344 575.834 180.84ZM630.643 161.256L631.411 170.184L631.027 169.416C632.499 166.408 634.579 164.04 637.267 162.312C640.019 160.584 643.155 159.72 646.675 159.72C648.915 159.72 650.899 160.072 652.627 160.776C654.355 161.48 655.763 162.504 656.851 163.848C658.003 165.128 658.739 166.728 659.059 168.648L658.579 168.936C660.115 166.056 662.227 163.816 664.915 162.216C667.667 160.552 670.547 159.72 673.555 159.72C677.459 159.72 680.531 160.84 682.771 163.08C685.075 165.256 686.259 168.104 686.323 171.624V201H677.395V174.792C677.331 172.744 676.819 171.048 675.859 169.704C674.963 168.296 673.363 167.528 671.059 167.4C668.755 167.4 666.675 168.104 664.819 169.512C663.027 170.92 661.619 172.744 660.595 174.984C659.571 177.16 659.027 179.528 658.963 182.088V201H650.035V174.792C649.971 172.744 649.427 171.048 648.403 169.704C647.443 168.296 645.811 167.528 643.507 167.4C641.139 167.4 639.059 168.104 637.267 169.512C635.475 170.92 634.067 172.744 633.043 174.984C632.083 177.224 631.603 179.624 631.603 182.184V201H622.675V161.256H630.643Z" fill="white"/>
<path d="M133.948 199.272L133.251 199.989L133.261 199.999L133.271 200.008L133.948 199.272ZM130.3 190.632H129.3V190.65L129.301 190.668L130.3 190.632ZM130.3 161.256V160.256H129.3V161.256H130.3ZM139.228 161.256H140.228V160.256H139.228V161.256ZM139.228 187.464H138.228V187.493L138.23 187.523L139.228 187.464ZM141.052 192.744L140.275 193.373L140.284 193.384L140.293 193.395L141.052 192.744ZM146.428 194.856L146.402 195.856L146.415 195.856H146.428V194.856ZM152.38 192.936L152.975 193.74L152.98 193.736L152.38 192.936ZM156.7 187.56L157.6 187.997L157.604 187.987L156.7 187.56ZM158.332 161.256V160.256H157.332V161.256H158.332ZM167.26 161.256H168.26V160.256H167.26V161.256ZM167.26 201V202H168.26V201H167.26ZM159.1 201L158.103 201.078L158.175 202H159.1V201ZM158.332 191.208L159.295 190.94L157.335 191.286L158.332 191.208ZM158.812 192.936L159.736 193.318L159.868 193L159.775 192.668L158.812 192.936ZM155.26 197.928L155.936 198.665L155.937 198.664L155.26 197.928ZM142.876 201.536C139.512 201.536 136.786 200.522 134.625 198.536L133.271 200.008C135.845 202.374 139.072 203.536 142.876 203.536V201.536ZM134.645 198.555C132.544 196.513 131.419 193.885 131.299 190.596L129.301 190.668C129.437 194.419 130.744 197.551 133.251 199.989L134.645 198.555ZM131.3 190.632V161.256H129.3V190.632H131.3ZM130.3 162.256H139.228V160.256H130.3V162.256ZM138.228 161.256V187.464H140.228V161.256H138.228ZM138.23 187.523C138.367 189.853 139.025 191.829 140.275 193.373L141.829 192.115C140.903 190.971 140.345 189.427 140.226 187.405L138.23 187.523ZM140.293 193.395C141.69 195.025 143.797 195.787 146.402 195.856L146.454 193.856C144.195 193.797 142.718 193.151 141.811 192.093L140.293 193.395ZM146.428 195.856C148.873 195.856 151.067 195.153 152.975 193.74L151.785 192.132C150.236 193.279 148.463 193.856 146.428 193.856V195.856ZM152.98 193.736C154.913 192.286 156.45 190.364 157.599 187.997L155.8 187.123C154.774 189.236 153.431 190.898 151.78 192.136L152.98 193.736ZM157.604 187.987C158.763 185.533 159.332 182.792 159.332 179.784H157.332C157.332 182.536 156.813 184.979 155.796 187.133L157.604 187.987ZM159.332 179.784V161.256H157.332V179.784H159.332ZM158.332 162.256H167.26V160.256H158.332V162.256ZM166.26 161.256V201H168.26V161.256H166.26ZM167.26 200H159.1V202H167.26V200ZM160.097 200.922L159.329 191.13L157.335 191.286L158.103 201.078L160.097 200.922ZM157.368 191.476L157.848 193.204L159.775 192.668L159.295 190.94L157.368 191.476ZM157.888 192.554C157.18 194.264 156.085 195.81 154.583 197.192L155.937 198.664C157.635 197.102 158.908 195.32 159.736 193.318L157.888 192.554ZM154.584 197.191C153.146 198.509 151.43 199.566 149.421 200.358L150.154 202.218C152.37 201.346 154.302 200.163 155.936 198.665L154.584 197.191ZM149.421 200.358C147.437 201.139 145.259 201.536 142.876 201.536V203.536C145.485 203.536 147.915 203.101 150.154 202.218L149.421 200.358ZM182.706 161.256V160.256H181.706V161.256H182.706ZM191.634 161.256H192.634V160.256H191.634V161.256ZM191.634 201V202H192.634V201H191.634ZM182.706 201H181.706V202H182.706V201ZM183.666 143.304L183.026 142.536L183.015 142.545L183.005 142.554L183.666 143.304ZM190.962 143.304L190.278 144.034L190.289 144.044L190.301 144.054L190.962 143.304ZM190.962 150.504L191.621 151.257L191.624 151.254L190.962 150.504ZM183.666 150.408L183.005 151.158L183.015 151.167L183.026 151.176L183.666 150.408ZM182.706 162.256H191.634V160.256H182.706V162.256ZM190.634 161.256V201H192.634V161.256H190.634ZM191.634 200H182.706V202H191.634V200ZM183.706 201V161.256H181.706V201H183.706ZM183.034 146.856C183.034 145.745 183.447 144.831 184.328 144.054L183.005 142.554C181.709 143.697 181.034 145.151 181.034 146.856H183.034ZM184.306 144.072C185.301 143.244 186.327 142.864 187.41 142.864V140.864C185.805 140.864 184.336 141.444 183.026 142.536L184.306 144.072ZM187.41 142.864C188.488 142.864 189.431 143.239 190.278 144.034L191.646 142.574C190.446 141.449 189.02 140.864 187.41 140.864V142.864ZM190.301 144.054C191.181 144.831 191.594 145.745 191.594 146.856H193.594C193.594 145.151 192.919 143.697 191.624 142.554L190.301 144.054ZM191.594 146.856C191.594 148.046 191.17 148.987 190.301 149.754L191.624 151.254C192.931 150.101 193.594 148.61 193.594 146.856H191.594ZM190.304 149.751C189.46 150.49 188.509 150.848 187.41 150.848V152.848C189 152.848 190.417 152.31 191.621 151.257L190.304 149.751ZM187.41 150.848C186.327 150.848 185.301 150.468 184.306 149.64L183.026 151.176C184.336 152.268 185.805 152.848 187.41 152.848V150.848ZM184.328 149.658C183.447 148.881 183.034 147.967 183.034 146.856H181.034C181.034 148.561 181.709 150.015 183.005 151.158L184.328 149.658ZM239.337 197.352L239.955 198.138L240.755 197.51L240.113 196.721L239.337 197.352ZM213.993 199.368L214.461 198.484L214.461 198.484L213.993 199.368ZM206.313 192.168L205.445 192.664L205.451 192.675L205.457 192.685L206.313 192.168ZM206.505 170.088L205.66 169.553L205.656 169.56L205.652 169.566L206.505 170.088ZM214.185 162.888L214.654 163.771L214.66 163.768L214.185 162.888ZM233.001 161.64L232.663 162.581L232.671 162.584L233.001 161.64ZM239.529 165.288L240.323 165.896L240.899 165.145L240.18 164.529L239.529 165.288ZM235.113 171.048L234.499 171.837L235.294 172.456L235.907 171.656L235.113 171.048ZM230.889 168.648L231.279 167.727L231.279 167.727L230.889 168.648ZM218.793 169.416L219.308 170.274L219.316 170.269L218.793 169.416ZM214.185 174.216L213.314 173.726L213.308 173.736L213.302 173.747L214.185 174.216ZM214.281 187.944L213.403 188.423L213.41 188.434L214.281 187.944ZM219.081 192.84L218.571 193.7L218.581 193.706L218.591 193.712L219.081 192.84ZM230.793 193.8L230.465 192.855L230.451 192.86L230.793 193.8ZM234.729 191.688L235.505 191.057L234.888 190.298L234.115 190.899L234.729 191.688ZM238.719 196.566C237.031 197.893 234.992 198.962 232.589 199.763L233.221 201.661C235.81 200.798 238.06 199.627 239.955 198.138L238.719 196.566ZM232.589 199.763C230.189 200.563 227.8 200.96 225.417 200.96V202.96C228.026 202.96 230.629 202.525 233.221 201.661L232.589 199.763ZM225.417 200.96C221.199 200.96 217.557 200.123 214.461 198.484L213.525 200.252C216.957 202.069 220.931 202.96 225.417 202.96V200.96ZM214.461 198.484C211.352 196.838 208.929 194.563 207.169 191.651L205.457 192.685C207.41 195.917 210.106 198.442 213.525 200.252L214.461 198.484ZM207.181 191.672C205.489 188.711 204.625 185.208 204.625 181.128H202.625C202.625 185.496 203.553 189.353 205.445 192.664L207.181 191.672ZM204.625 181.128C204.625 177.06 205.548 173.567 207.358 170.61L205.652 169.566C203.623 172.881 202.625 176.748 202.625 181.128H204.625ZM207.35 170.623C209.246 167.627 211.679 165.35 214.654 163.771L213.716 162.005C210.42 163.754 207.733 166.277 205.66 169.553L207.35 170.623ZM214.66 163.768C217.714 162.119 220.975 161.296 224.457 161.296V159.296C220.644 159.296 217.056 160.201 213.71 162.008L214.66 163.768ZM224.457 161.296C227.565 161.296 230.296 161.731 232.663 162.581L233.339 160.699C230.715 159.757 227.749 159.296 224.457 159.296V161.296ZM232.671 162.584C235.131 163.445 237.194 164.603 238.878 166.047L240.18 164.529C238.281 162.901 235.992 161.627 233.332 160.696L232.671 162.584ZM238.736 164.68L234.32 170.44L235.907 171.656L240.323 165.896L238.736 164.68ZM235.727 170.259C234.492 169.298 233.005 168.457 231.279 167.727L230.5 169.569C232.102 170.247 233.43 171.006 234.499 171.837L235.727 170.259ZM231.279 167.727C229.473 166.963 227.449 166.592 225.225 166.592V168.592C227.226 168.592 228.978 168.925 230.5 169.569L231.279 167.727ZM225.225 166.592C222.735 166.592 220.41 167.252 218.271 168.563L219.316 170.269C221.144 169.148 223.108 168.592 225.225 168.592V166.592ZM218.279 168.559C216.202 169.804 214.546 171.534 213.314 173.726L215.057 174.706C216.128 172.802 217.544 171.332 219.308 170.273L218.279 168.559ZM213.302 173.747C212.13 175.954 211.553 178.422 211.553 181.128H213.553C213.553 178.714 214.065 176.574 215.068 174.685L213.302 173.747ZM211.553 181.128C211.553 183.725 212.17 186.162 213.403 188.423L215.159 187.465C214.088 185.502 213.553 183.395 213.553 181.128H211.553ZM213.41 188.434C214.649 190.637 216.374 192.396 218.571 193.7L219.592 191.98C217.692 190.852 216.218 189.347 215.153 187.454L213.41 188.434ZM218.591 193.712C220.805 194.957 223.314 195.568 226.089 195.568V193.568C223.616 193.568 221.453 193.027 219.571 191.968L218.591 193.712ZM226.089 195.568C227.916 195.568 229.602 195.297 231.135 194.74L230.451 192.86C229.168 193.327 227.718 193.568 226.089 193.568V195.568ZM231.122 194.744C232.69 194.199 234.099 193.445 235.343 192.477L234.115 190.899C233.055 191.723 231.841 192.377 230.465 192.856L231.122 194.744ZM233.953 192.319L238.561 197.983L240.113 196.721L235.505 191.057L233.953 192.319ZM250.862 201H249.862V202H250.862V201ZM250.862 126.696V125.696H249.862V126.696H250.862ZM259.79 126.696H260.79V125.696H259.79V126.696ZM259.79 201V202H260.79V201H259.79ZM269.39 174.6L270.213 174.032L269.589 173.128L268.748 173.834L269.39 174.6ZM287.63 201V202H289.537L288.453 200.432L287.63 201ZM277.166 201L276.325 201.54L276.62 202H277.166V201ZM263.438 179.592L262.796 178.826L262.122 179.391L262.597 180.132L263.438 179.592ZM257.006 188.328L256.012 188.429L256.198 190.269L257.636 189.105L257.006 188.328ZM256.142 179.784L255.515 179.005L255.093 179.345L255.148 179.885L256.142 179.784ZM280.238 160.392L280.89 159.634L280.26 159.091L279.611 159.613L280.238 160.392ZM285.71 165.096L286.34 165.873L287.271 165.119L286.362 164.338L285.71 165.096ZM251.862 201V126.696H249.862V201H251.862ZM250.862 127.696H259.79V125.696H250.862V127.696ZM258.79 126.696V201H260.79V126.696H258.79ZM259.79 200H250.862V202H259.79V200ZM268.568 175.168L286.808 201.568L288.453 200.432L270.213 174.032L268.568 175.168ZM287.63 200H277.166V202H287.63V200ZM278.008 200.46L264.28 179.052L262.597 180.132L276.325 201.54L278.008 200.46ZM264.081 180.358L270.033 175.366L268.748 173.834L262.796 178.826L264.081 180.358ZM258.001 188.227L257.137 179.683L255.148 179.885L256.012 188.429L258.001 188.227ZM256.769 180.563L280.865 161.171L279.611 159.613L255.515 179.005L256.769 180.563ZM279.587 161.15L285.059 165.854L286.362 164.338L280.89 159.634L279.587 161.15ZM285.081 164.319L256.377 187.551L257.636 189.105L286.34 165.873L285.081 164.319ZM335.155 135.912L334.568 136.721L334.575 136.727L334.582 136.732L335.155 135.912ZM338.707 158.664L337.857 158.138L337.857 158.138L338.707 158.664ZM331.699 165L331.244 164.109L331.236 164.113L331.699 165ZM321.235 167.592L320.272 167.862L320.487 168.629L321.283 168.591L321.235 167.592ZM319.891 162.792L319.918 161.792L318.562 161.755L318.928 163.062L319.891 162.792ZM332.467 165.288L332.085 166.212L332.085 166.212L332.467 165.288ZM341.299 171.72L342.083 171.1L342.083 171.1L341.299 171.72ZM342.643 190.44L343.528 190.906L343.533 190.896L342.643 190.44ZM337.459 196.488L338.036 197.305L338.044 197.299L338.051 197.294L337.459 196.488ZM330.067 199.944L330.315 200.913L330.325 200.91L330.336 200.907L330.067 199.944ZM300.883 201H299.883V202H300.883V201ZM300.883 131.592V130.592H299.883V131.592H300.883ZM329.011 158.856L329.785 159.489L329.79 159.484L329.794 159.478L329.011 158.856ZM328.243 143.016L328.839 142.213L328.839 142.213L328.243 143.016ZM310.195 140.52V139.52H309.195V140.52H310.195ZM310.195 162.024H309.195V163.024H310.195V162.024ZM328.051 191.208L327.718 190.265L327.709 190.268L328.051 191.208ZM333.139 187.656L332.358 187.031L332.35 187.041L332.343 187.051L333.139 187.656ZM332.851 175.272L332.114 175.948L332.121 175.956L332.129 175.964L332.851 175.272ZM327.379 172.008L327.079 172.962L327.092 172.966L327.104 172.97L327.379 172.008ZM310.195 170.952V169.952H309.195V170.952H310.195ZM310.195 192.36H309.195V193.36H310.195V192.36ZM318.739 132.592C325.59 132.592 330.829 134.008 334.568 136.721L335.742 135.103C331.545 132.056 325.84 130.592 318.739 130.592V132.592ZM334.582 136.732C338.285 139.318 340.203 143.388 340.203 149.16H342.203C342.203 142.9 340.089 138.138 335.728 135.092L334.582 136.732ZM340.203 149.16C340.203 152.651 339.409 155.631 337.857 158.138L339.557 159.19C341.333 156.321 342.203 152.965 342.203 149.16H340.203ZM337.857 158.138C336.295 160.66 334.101 162.651 331.244 164.109L332.154 165.891C335.313 164.277 337.791 162.044 339.557 159.19L337.857 158.138ZM331.236 164.113C328.446 165.569 325.105 166.407 321.187 166.593L321.283 168.591C325.429 168.393 329.064 167.503 332.162 165.887L331.236 164.113ZM322.198 167.322L320.854 162.522L318.928 163.062L320.272 167.862L322.198 167.322ZM319.864 163.792C324.433 163.917 328.502 164.73 332.085 166.212L332.849 164.364C329.008 162.774 324.693 161.923 319.918 161.792L319.864 163.792ZM332.085 166.212C335.662 167.692 338.459 169.741 340.515 172.34L342.083 171.1C339.787 168.195 336.696 165.956 332.849 164.364L332.085 166.212ZM340.515 172.34C342.54 174.902 343.563 177.943 343.563 181.512H345.563C345.563 177.529 344.41 174.042 342.083 171.1L340.515 172.34ZM343.563 181.512C343.563 184.846 342.946 187.658 341.753 189.984L343.533 190.896C344.9 188.23 345.563 185.09 345.563 181.512H343.563ZM341.758 189.974C340.547 192.275 338.918 194.174 336.867 195.682L338.051 197.294C340.352 195.602 342.179 193.469 343.528 190.906L341.758 189.974ZM336.882 195.671C334.806 197.136 332.448 198.241 329.798 198.981L330.336 200.907C333.19 200.111 335.76 198.912 338.036 197.305L336.882 195.671ZM329.819 198.975C327.151 199.658 324.386 200 321.523 200V202C324.547 202 327.479 201.638 330.315 200.913L329.819 198.975ZM321.523 200H300.883V202H321.523V200ZM301.883 201V131.592H299.883V201H301.883ZM300.883 132.592H318.739V130.592H300.883V132.592ZM320.659 163.024C324.671 163.024 327.799 161.917 329.785 159.489L328.237 158.223C326.767 160.019 324.327 161.024 320.659 161.024V163.024ZM329.794 159.478C331.677 157.106 332.603 154.257 332.603 150.984H330.603C330.603 153.855 329.8 156.254 328.228 158.234L329.794 159.478ZM332.603 150.984C332.603 147.126 331.408 144.121 328.839 142.213L327.647 143.819C329.558 145.239 330.603 147.546 330.603 150.984H332.603ZM328.839 142.213C326.375 140.383 323.135 139.52 319.219 139.52V141.52C322.855 141.52 325.631 142.321 327.647 143.819L328.839 142.213ZM319.219 139.52H310.195V141.52H319.219V139.52ZM309.195 140.52V162.024H311.195V140.52H309.195ZM310.195 163.024H320.659V161.024H310.195V163.024ZM321.043 193.36C323.703 193.36 326.157 192.961 328.393 192.148L327.709 190.268C325.721 190.991 323.502 191.36 321.043 191.36V193.36ZM328.384 192.151C330.716 191.328 332.584 190.039 333.935 188.261L332.343 187.051C331.262 188.473 329.738 189.552 327.718 190.265L328.384 192.151ZM333.92 188.281C335.367 186.472 336.059 184.223 336.059 181.608H334.059C334.059 183.857 333.471 185.64 332.358 187.031L333.92 188.281ZM336.059 181.608C336.059 178.733 335.267 176.348 333.573 174.58L332.129 175.964C333.379 177.268 334.059 179.107 334.059 181.608H336.059ZM333.588 174.596C332.041 172.909 330.05 171.731 327.654 171.046L327.104 172.97C329.188 173.565 330.845 174.563 332.114 175.948L333.588 174.596ZM327.679 171.054C325.341 170.319 322.936 169.952 320.467 169.952V171.952C322.734 171.952 324.937 172.289 327.079 172.962L327.679 171.054ZM320.467 169.952H310.195V171.952H320.467V169.952ZM309.195 170.952V192.36H311.195V170.952H309.195ZM310.195 193.36H321.043V191.36H310.195V193.36ZM357.347 169.992L356.489 169.478L356.485 169.484L356.482 169.49L357.347 169.992ZM365.219 162.408L365.706 163.281L365.706 163.281L365.219 162.408ZM387.971 162.408L387.476 163.277L387.476 163.277L387.971 162.408ZM395.555 169.992L396.427 169.503L396.427 169.503L395.555 169.992ZM395.555 191.592L396.427 192.081L396.431 192.073L395.555 191.592ZM387.875 199.176L387.388 198.303L387.38 198.307L387.875 199.176ZM365.123 199.368L364.641 200.245L364.652 200.25L364.662 200.255L365.123 199.368ZM357.347 191.976L356.482 192.478L356.488 192.488L356.494 192.498L357.347 191.976ZM365.219 187.848L364.341 188.327L364.347 188.338L365.219 187.848ZM369.827 192.744L369.292 193.589L369.298 193.593L369.304 193.597L369.827 192.744ZM382.979 192.744L382.456 191.891L382.45 191.895L382.444 191.899L382.979 192.744ZM387.587 187.848L388.47 188.317L388.476 188.306L387.587 187.848ZM387.587 173.928L386.698 174.386L386.704 174.397L387.587 173.928ZM382.979 168.936L382.424 169.768L382.44 169.779L382.456 169.789L382.979 168.936ZM369.731 168.936L369.189 168.096L369.182 168.1L369.176 168.104L369.731 168.936ZM365.123 174.024L364.245 173.545L364.24 173.555L365.123 174.024ZM355.563 180.744C355.563 176.939 356.451 173.53 358.212 170.494L356.482 169.49C354.531 172.854 353.563 176.613 353.563 180.744H355.563ZM358.204 170.506C360.032 167.46 362.527 165.054 365.706 163.281L364.732 161.535C361.254 163.474 358.501 166.124 356.489 169.478L358.204 170.506ZM365.706 163.281C368.869 161.517 372.474 160.624 376.547 160.624V158.624C372.171 158.624 368.224 159.587 364.732 161.535L365.706 163.281ZM376.547 160.624C380.753 160.624 384.386 161.52 387.476 163.277L388.465 161.539C385.028 159.584 381.044 158.624 376.547 158.624V160.624ZM387.476 163.277C390.586 165.045 392.981 167.444 394.682 170.481L396.427 169.503C394.544 166.14 391.883 163.483 388.465 161.539L387.476 163.277ZM394.682 170.481C396.384 173.519 397.243 176.933 397.243 180.744H399.243C399.243 176.619 398.31 172.865 396.427 169.503L394.682 170.481ZM397.243 180.744C397.243 184.555 396.384 188.004 394.678 191.111L396.431 192.073C398.31 188.652 399.243 184.869 399.243 180.744H397.243ZM394.682 191.103C392.984 194.135 390.561 196.533 387.388 198.303L388.362 200.049C391.845 198.107 394.541 195.449 396.427 192.081L394.682 191.103ZM387.38 198.307C384.29 200.064 380.657 200.96 376.451 200.96V202.96C380.948 202.96 384.932 202 388.369 200.045L387.38 198.307ZM376.451 200.96C372.367 200.96 368.752 200.126 365.584 198.481L364.662 200.255C368.149 202.066 372.087 202.96 376.451 202.96V200.96ZM365.604 198.491C362.491 196.782 360.027 194.439 358.2 191.454L356.494 192.498C358.506 195.785 361.227 198.37 364.641 200.245L365.604 198.491ZM358.212 191.474C356.457 188.45 355.563 184.884 355.563 180.744H353.563C353.563 185.18 354.524 189.102 356.482 192.478L358.212 191.474ZM362.491 180.84C362.491 183.556 363.104 186.059 364.341 188.327L366.097 187.369C365.03 185.413 364.491 183.244 364.491 180.84H362.491ZM364.347 188.338C365.577 190.525 367.227 192.281 369.292 193.589L370.362 191.899C368.586 190.775 367.164 189.267 366.09 187.358L364.347 188.338ZM369.304 193.597C371.448 194.911 373.806 195.568 376.355 195.568V193.568C374.168 193.568 372.173 193.009 370.349 191.891L369.304 193.597ZM376.355 195.568C379.021 195.568 381.418 194.916 383.514 193.589L382.444 191.899C380.699 193.004 378.681 193.568 376.355 193.568V195.568ZM383.501 193.597C385.637 192.288 387.298 190.523 388.47 188.317L386.704 187.379C385.7 189.269 384.288 190.768 382.456 191.891L383.501 193.597ZM388.476 188.306C389.642 186.041 390.219 183.547 390.219 180.84H388.219C388.219 183.253 387.707 185.431 386.698 187.39L388.476 188.306ZM390.219 180.84C390.219 178.134 389.642 175.666 388.47 173.459L386.704 174.397C387.707 176.286 388.219 178.426 388.219 180.84H390.219ZM388.476 173.47C387.306 171.199 385.645 169.397 383.501 168.083L382.456 169.789C384.281 170.907 385.692 172.433 386.698 174.386L388.476 173.47ZM383.533 168.104C381.436 166.705 379.031 166.016 376.355 166.016V168.016C378.67 168.016 380.682 168.607 382.424 169.768L383.533 168.104ZM376.355 166.016C373.737 166.016 371.339 166.708 369.189 168.096L370.273 169.776C372.09 168.604 374.109 168.016 376.355 168.016V166.016ZM369.176 168.104C367.115 169.478 365.471 171.297 364.245 173.545L366.001 174.503C367.078 172.527 368.506 170.954 370.285 169.768L369.176 168.104ZM364.24 173.555C363.069 175.758 362.491 178.193 362.491 180.84H364.491C364.491 178.495 365 176.386 366.006 174.493L364.24 173.555ZM409.659 169.992L408.802 169.478L408.798 169.484L408.794 169.49L409.659 169.992ZM417.531 162.408L418.018 163.281L418.018 163.281L417.531 162.408ZM440.283 162.408L439.789 163.277L439.789 163.277L440.283 162.408ZM447.867 169.992L448.74 169.503L448.74 169.503L447.867 169.992ZM447.867 191.592L448.74 192.081L448.744 192.073L447.867 191.592ZM440.187 199.176L439.7 198.303L439.693 198.307L440.187 199.176ZM417.435 199.368L416.954 200.245L416.964 200.25L416.974 200.255L417.435 199.368ZM409.659 191.976L408.794 192.478L408.8 192.488L408.806 192.498L409.659 191.976ZM417.531 187.848L416.653 188.327L416.66 188.338L417.531 187.848ZM422.139 192.744L421.604 193.589L421.61 193.593L421.617 193.597L422.139 192.744ZM435.291 192.744L434.769 191.891L434.762 191.895L434.756 191.899L435.291 192.744ZM439.899 187.848L440.782 188.317L440.788 188.306L439.899 187.848ZM439.899 173.928L439.01 174.386L439.016 174.397L439.899 173.928ZM435.291 168.936L434.737 169.768L434.752 169.779L434.769 169.789L435.291 168.936ZM422.043 168.936L421.501 168.096L421.495 168.1L421.489 168.104L422.043 168.936ZM417.435 174.024L416.557 173.545L416.552 173.555L417.435 174.024ZM407.875 180.744C407.875 176.939 408.763 173.53 410.524 170.494L408.794 169.49C406.843 172.854 405.875 176.613 405.875 180.744H407.875ZM410.517 170.506C412.345 167.46 414.84 165.054 418.018 163.281L417.044 161.535C413.567 163.474 410.814 166.124 408.802 169.478L410.517 170.506ZM418.018 163.281C421.182 161.517 424.787 160.624 428.859 160.624V158.624C424.484 158.624 420.537 159.587 417.044 161.535L418.018 163.281ZM428.859 160.624C433.066 160.624 436.698 161.52 439.789 163.277L440.778 161.539C437.34 159.584 433.357 158.624 428.859 158.624V160.624ZM439.789 163.277C442.898 165.045 445.294 167.444 446.995 170.481L448.74 169.503C446.856 166.14 444.196 163.483 440.778 161.539L439.789 163.277ZM446.995 170.481C448.696 173.519 449.555 176.933 449.555 180.744H451.555C451.555 176.619 450.622 172.865 448.74 169.503L446.995 170.481ZM449.555 180.744C449.555 184.555 448.696 188.004 446.991 191.111L448.744 192.073C450.622 188.652 451.555 184.869 451.555 180.744H449.555ZM446.995 191.103C445.297 194.135 442.873 196.533 439.7 198.303L440.674 200.049C444.157 198.107 446.854 195.449 448.74 192.081L446.995 191.103ZM439.693 198.307C436.602 200.064 432.97 200.96 428.763 200.96V202.96C433.261 202.96 437.244 202 440.682 200.045L439.693 198.307ZM428.763 200.96C424.679 200.96 421.065 200.126 417.896 198.481L416.974 200.255C420.462 202.066 424.399 202.96 428.763 202.96V200.96ZM417.916 198.491C414.803 196.782 412.34 194.439 410.512 191.454L408.806 192.498C410.818 195.785 413.539 198.37 416.954 200.245L417.916 198.491ZM410.524 191.474C408.77 188.45 407.875 184.884 407.875 180.744H405.875C405.875 185.18 406.837 189.102 408.794 192.478L410.524 191.474ZM414.803 180.84C414.803 183.556 415.416 186.059 416.653 188.327L418.409 187.369C417.342 185.413 416.803 183.244 416.803 180.84H414.803ZM416.66 188.338C417.89 190.525 419.54 192.281 421.604 193.589L422.674 191.899C420.899 190.775 419.477 189.267 418.403 187.358L416.66 188.338ZM421.617 193.597C423.761 194.911 426.118 195.568 428.667 195.568V193.568C426.48 193.568 424.486 193.009 422.662 191.891L421.617 193.597ZM428.667 195.568C431.333 195.568 433.731 194.916 435.826 193.589L434.756 191.899C433.012 193.004 430.993 193.568 428.667 193.568V195.568ZM435.814 193.597C437.949 192.288 439.61 190.523 440.782 188.317L439.016 187.379C438.012 189.269 436.601 190.768 434.769 191.891L435.814 193.597ZM440.788 188.306C441.955 186.041 442.531 183.547 442.531 180.84H440.531C440.531 183.253 440.02 185.431 439.01 187.39L440.788 188.306ZM442.531 180.84C442.531 178.134 441.955 175.666 440.782 173.459L439.016 174.397C440.02 176.286 440.531 178.426 440.531 180.84H442.531ZM440.788 173.47C439.618 171.199 437.957 169.397 435.814 168.083L434.769 169.789C436.593 170.907 438.004 172.433 439.01 174.386L440.788 173.47ZM435.846 168.104C433.748 166.705 431.344 166.016 428.667 166.016V168.016C430.983 168.016 432.994 168.607 434.737 169.768L435.846 168.104ZM428.667 166.016C426.049 166.016 423.652 166.708 421.501 168.096L422.585 169.776C424.403 168.604 426.421 168.016 428.667 168.016V166.016ZM421.489 168.104C419.428 169.478 417.783 171.297 416.557 173.545L418.313 174.503C419.391 172.527 420.818 170.954 422.598 169.768L421.489 168.104ZM416.552 173.555C415.382 175.758 414.803 178.193 414.803 180.84H416.803C416.803 178.495 417.313 176.386 418.318 174.493L416.552 173.555ZM462.644 201H461.644V202H462.644V201ZM462.644 126.696V125.696H461.644V126.696H462.644ZM471.572 126.696H472.572V125.696H471.572V126.696ZM471.572 201V202H472.572V201H471.572ZM481.172 174.6L481.994 174.032L481.37 173.128L480.529 173.834L481.172 174.6ZM499.412 201V202H501.318L500.234 200.432L499.412 201ZM488.948 201L488.106 201.54L488.401 202H488.948V201ZM475.22 179.592L474.577 178.826L473.903 179.391L474.378 180.132L475.22 179.592ZM468.788 188.328L467.793 188.429L467.979 190.269L469.417 189.105L468.788 188.328ZM467.924 179.784L467.297 179.005L466.874 179.345L466.929 179.885L467.924 179.784ZM492.02 160.392L492.672 159.634L492.041 159.091L491.393 159.613L492.02 160.392ZM497.492 165.096L498.121 165.873L499.053 165.119L498.144 164.338L497.492 165.096ZM463.644 201V126.696H461.644V201H463.644ZM462.644 127.696H471.572V125.696H462.644V127.696ZM470.572 126.696V201H472.572V126.696H470.572ZM471.572 200H462.644V202H471.572V200ZM480.349 175.168L498.589 201.568L500.234 200.432L481.994 174.032L480.349 175.168ZM499.412 200H488.948V202H499.412V200ZM489.789 200.46L476.061 179.052L474.378 180.132L488.106 201.54L489.789 200.46ZM475.862 180.358L481.814 175.366L480.529 173.834L474.577 178.826L475.862 180.358ZM469.783 188.227L468.919 179.683L466.929 179.885L467.793 188.429L469.783 188.227ZM468.551 180.563L492.647 161.171L491.393 159.613L467.297 179.005L468.551 180.563ZM491.368 161.15L496.84 165.854L498.144 164.338L492.672 159.634L491.368 161.15ZM496.863 164.319L468.159 187.551L469.417 189.105L498.121 165.873L496.863 164.319ZM507.48 192.36L508.164 193.09L508.166 193.088L507.48 192.36ZM514.296 192.36L513.589 193.067L513.611 193.089L513.635 193.11L514.296 192.36ZM514.296 199.656L514.955 200.409L514.958 200.406L514.296 199.656ZM507.48 199.656L506.796 200.386L506.82 200.408L506.844 200.428L507.48 199.656ZM506.944 195.912C506.944 194.779 507.343 193.86 508.164 193.09L506.796 191.63C505.57 192.78 504.944 194.229 504.944 195.912H506.944ZM508.166 193.088C509.101 192.208 510.049 191.824 511.032 191.824V189.824C509.455 189.824 508.035 190.464 506.795 191.632L508.166 193.088ZM511.032 191.824C511.855 191.824 512.702 192.18 513.589 193.067L515.003 191.653C513.843 190.492 512.514 189.824 511.032 189.824V191.824ZM513.635 193.11C514.515 193.887 514.928 194.801 514.928 195.912H516.928C516.928 194.207 516.253 192.753 514.958 191.61L513.635 193.11ZM514.928 195.912C514.928 197.18 514.494 198.148 513.635 198.906L514.958 200.406C516.275 199.244 516.928 197.716 516.928 195.912H514.928ZM513.638 198.903C512.761 199.67 511.899 200 511.032 200V202C512.469 202 513.783 201.434 514.955 200.409L513.638 198.903ZM511.032 200C510.008 200 509.044 199.649 508.116 198.884L506.844 200.428C508.092 201.455 509.496 202 511.032 202V200ZM508.164 198.926C507.362 198.174 506.944 197.201 506.944 195.912H504.944C504.944 197.695 505.55 199.218 506.796 200.386L508.164 198.926ZM558.837 197.352L559.455 198.138L560.255 197.51L559.613 196.721L558.837 197.352ZM533.493 199.368L533.961 198.484L533.961 198.484L533.493 199.368ZM525.813 192.168L524.945 192.664L524.951 192.675L524.957 192.685L525.813 192.168ZM526.005 170.088L525.16 169.553L525.156 169.56L525.152 169.566L526.005 170.088ZM533.685 162.888L534.154 163.771L534.16 163.768L533.685 162.888ZM552.501 161.64L552.163 162.581L552.171 162.584L552.501 161.64ZM559.029 165.288L559.823 165.896L560.399 165.145L559.68 164.529L559.029 165.288ZM554.613 171.048L553.999 171.837L554.794 172.456L555.407 171.656L554.613 171.048ZM550.389 168.648L550.779 167.727L550.779 167.727L550.389 168.648ZM538.293 169.416L538.808 170.274L538.816 170.269L538.293 169.416ZM533.685 174.216L532.814 173.726L532.808 173.736L532.802 173.747L533.685 174.216ZM533.781 187.944L532.903 188.423L532.91 188.434L533.781 187.944ZM538.581 192.84L538.071 193.7L538.081 193.706L538.091 193.712L538.581 192.84ZM550.293 193.8L549.965 192.855L549.951 192.86L550.293 193.8ZM554.229 191.688L555.005 191.057L554.388 190.298L553.615 190.899L554.229 191.688ZM558.219 196.566C556.531 197.893 554.492 198.962 552.089 199.763L552.721 201.661C555.31 200.798 557.56 199.627 559.455 198.138L558.219 196.566ZM552.089 199.763C549.689 200.563 547.3 200.96 544.917 200.96V202.96C547.526 202.96 550.129 202.525 552.721 201.661L552.089 199.763ZM544.917 200.96C540.699 200.96 537.057 200.123 533.961 198.484L533.025 200.252C536.457 202.069 540.431 202.96 544.917 202.96V200.96ZM533.961 198.484C530.852 196.838 528.429 194.563 526.669 191.651L524.957 192.685C526.91 195.917 529.606 198.442 533.025 200.252L533.961 198.484ZM526.681 191.672C524.989 188.711 524.125 185.208 524.125 181.128H522.125C522.125 185.496 523.053 189.353 524.945 192.664L526.681 191.672ZM524.125 181.128C524.125 177.06 525.048 173.567 526.858 170.61L525.152 169.566C523.123 172.881 522.125 176.748 522.125 181.128H524.125ZM526.85 170.623C528.746 167.627 531.179 165.35 534.154 163.771L533.216 162.005C529.92 163.754 527.233 166.277 525.16 169.553L526.85 170.623ZM534.16 163.768C537.214 162.119 540.475 161.296 543.957 161.296V159.296C540.144 159.296 536.556 160.201 533.21 162.008L534.16 163.768ZM543.957 161.296C547.065 161.296 549.796 161.731 552.163 162.581L552.839 160.699C550.215 159.757 547.249 159.296 543.957 159.296V161.296ZM552.171 162.584C554.631 163.445 556.694 164.603 558.378 166.047L559.68 164.529C557.781 162.901 555.492 161.627 552.832 160.696L552.171 162.584ZM558.236 164.68L553.82 170.44L555.407 171.656L559.823 165.896L558.236 164.68ZM555.227 170.259C553.992 169.298 552.505 168.457 550.779 167.727L550 169.569C551.602 170.247 552.93 171.006 553.999 171.837L555.227 170.259ZM550.779 167.727C548.973 166.963 546.949 166.592 544.725 166.592V168.592C546.726 168.592 548.478 168.925 550 169.569L550.779 167.727ZM544.725 166.592C542.235 166.592 539.91 167.252 537.771 168.563L538.816 170.269C540.644 169.148 542.608 168.592 544.725 168.592V166.592ZM537.779 168.559C535.702 169.804 534.046 171.534 532.814 173.726L534.557 174.706C535.628 172.802 537.044 171.332 538.808 170.273L537.779 168.559ZM532.802 173.747C531.63 175.954 531.053 178.422 531.053 181.128H533.053C533.053 178.714 533.565 176.574 534.568 174.685L532.802 173.747ZM531.053 181.128C531.053 183.725 531.67 186.162 532.903 188.423L534.659 187.465C533.588 185.502 533.053 183.395 533.053 181.128H531.053ZM532.91 188.434C534.149 190.637 535.874 192.396 538.071 193.7L539.092 191.98C537.192 190.852 535.718 189.347 534.653 187.454L532.91 188.434ZM538.091 193.712C540.305 194.957 542.814 195.568 545.589 195.568V193.568C543.116 193.568 540.953 193.027 539.071 191.968L538.091 193.712ZM545.589 195.568C547.416 195.568 549.102 195.297 550.635 194.74L549.951 192.86C548.668 193.327 547.218 193.568 545.589 193.568V195.568ZM550.622 194.744C552.19 194.199 553.599 193.445 554.843 192.477L553.615 190.899C552.555 191.723 551.341 192.377 549.965 192.856L550.622 194.744ZM553.453 192.319L558.061 197.983L559.613 196.721L555.005 191.057L553.453 192.319ZM569.69 169.992L568.833 169.478L568.829 169.484L568.825 169.49L569.69 169.992ZM577.562 162.408L578.05 163.281L578.05 163.281L577.562 162.408ZM600.314 162.408L599.82 163.277L599.82 163.277L600.314 162.408ZM607.898 169.992L608.771 169.503L608.771 169.503L607.898 169.992ZM607.898 191.592L608.771 192.081L608.775 192.073L607.898 191.592ZM600.218 199.176L599.731 198.303L599.724 198.307L600.218 199.176ZM577.466 199.368L576.985 200.245L576.995 200.25L577.006 200.255L577.466 199.368ZM569.69 191.976L568.825 192.478L568.831 192.488L568.838 192.498L569.69 191.976ZM577.562 187.848L576.684 188.327L576.691 188.338L577.562 187.848ZM582.17 192.744L581.635 193.589L581.642 193.593L581.648 193.597L582.17 192.744ZM595.322 192.744L594.8 191.891L594.794 191.895L594.787 191.899L595.322 192.744ZM599.93 187.848L600.814 188.317L600.819 188.306L599.93 187.848ZM599.93 173.928L599.041 174.386L599.047 174.397L599.93 173.928ZM595.322 168.936L594.768 169.768L594.784 169.779L594.8 169.789L595.322 168.936ZM582.074 168.936L581.532 168.096L581.526 168.1L581.52 168.104L582.074 168.936ZM577.466 174.024L576.589 173.545L576.583 173.555L577.466 174.024ZM567.906 180.744C567.906 176.939 568.794 173.53 570.555 170.494L568.825 169.49C566.875 172.854 565.906 176.613 565.906 180.744H567.906ZM570.548 170.506C572.376 167.46 574.871 165.054 578.05 163.281L577.075 161.535C573.598 163.474 570.845 166.124 568.833 169.478L570.548 170.506ZM578.05 163.281C581.213 161.517 584.818 160.624 588.89 160.624V158.624C584.515 158.624 580.568 159.587 577.075 161.535L578.05 163.281ZM588.89 160.624C593.097 160.624 596.729 161.52 599.82 163.277L600.809 161.539C597.372 159.584 593.388 158.624 588.89 158.624V160.624ZM599.82 163.277C602.93 165.045 605.325 167.444 607.026 170.481L608.771 169.503C606.888 166.14 604.227 163.483 600.809 161.539L599.82 163.277ZM607.026 170.481C608.728 173.519 609.586 176.933 609.586 180.744H611.586C611.586 176.619 610.653 172.865 608.771 169.503L607.026 170.481ZM609.586 180.744C609.586 184.555 608.728 188.004 607.022 191.111L608.775 192.073C610.653 188.652 611.586 184.869 611.586 180.744H609.586ZM607.026 191.103C605.328 194.135 602.904 196.533 599.731 198.303L600.706 200.049C604.189 198.107 606.885 195.449 608.771 192.081L607.026 191.103ZM599.724 198.307C596.633 200.064 593.001 200.96 588.794 200.96V202.96C593.292 202.96 597.276 202 600.713 200.045L599.724 198.307ZM588.794 200.96C584.71 200.96 581.096 200.126 577.927 198.481L577.006 200.255C580.493 202.066 584.431 202.96 588.794 202.96V200.96ZM577.948 198.491C574.834 196.782 572.371 194.439 570.543 191.454L568.838 192.498C570.85 195.785 573.571 198.37 576.985 200.245L577.948 198.491ZM570.555 191.474C568.801 188.45 567.906 184.884 567.906 180.744H565.906C565.906 185.18 566.868 189.102 568.825 192.478L570.555 191.474ZM574.834 180.84C574.834 183.556 575.447 186.059 576.685 188.327L578.44 187.369C577.374 185.413 576.834 183.244 576.834 180.84H574.834ZM576.691 188.338C577.921 190.525 579.571 192.281 581.635 193.589L582.706 191.899C580.93 190.775 579.508 189.267 578.434 187.358L576.691 188.338ZM581.648 193.597C583.792 194.911 586.149 195.568 588.698 195.568V193.568C586.511 193.568 584.517 193.009 582.693 191.891L581.648 193.597ZM588.698 195.568C591.365 195.568 593.762 194.916 595.858 193.589L594.787 191.899C593.043 193.004 591.024 193.568 588.698 193.568V195.568ZM595.845 193.597C597.981 192.288 599.641 190.523 600.814 188.317L599.047 187.379C598.043 189.269 596.632 190.768 594.8 191.891L595.845 193.597ZM600.819 188.306C601.986 186.041 602.562 183.547 602.562 180.84H600.562C600.562 183.253 600.051 185.431 599.041 187.39L600.819 188.306ZM602.562 180.84C602.562 178.134 601.986 175.666 600.814 173.459L599.047 174.397C600.051 176.286 600.562 178.426 600.562 180.84H602.562ZM600.819 173.47C599.65 171.199 597.988 169.397 595.845 168.083L594.8 169.789C596.625 170.907 598.035 172.433 599.041 174.386L600.819 173.47ZM595.877 168.104C593.779 166.705 591.375 166.016 588.698 166.016V168.016C591.014 168.016 593.026 168.607 594.768 169.768L595.877 168.104ZM588.698 166.016C586.08 166.016 583.683 166.708 581.532 168.096L582.617 169.776C584.434 168.604 586.453 168.016 588.698 168.016V166.016ZM581.52 168.104C579.459 169.478 577.815 171.297 576.589 173.545L578.344 174.503C579.422 172.527 580.85 170.954 582.629 169.768L581.52 168.104ZM576.583 173.555C575.413 175.758 574.834 178.193 574.834 180.84H576.834C576.834 178.495 577.344 176.386 578.35 174.493L576.583 173.555ZM630.643 161.256L631.639 161.17L631.561 160.256H630.643V161.256ZM631.411 170.184L630.517 170.631L632.407 170.098L631.411 170.184ZM631.027 169.416L630.129 168.976L629.911 169.421L630.133 169.863L631.027 169.416ZM637.267 162.312L636.735 161.465L636.726 161.471L637.267 162.312ZM652.627 160.776L653.004 159.85L653.004 159.85L652.627 160.776ZM656.851 163.848L656.074 164.477L656.09 164.498L656.108 164.517L656.851 163.848ZM659.059 168.648L659.573 169.505L660.157 169.155L660.045 168.484L659.059 168.648ZM658.579 168.936L657.697 168.465L655.998 171.651L659.093 169.793L658.579 168.936ZM664.915 162.216L665.426 163.075L665.432 163.072L664.915 162.216ZM682.771 163.08L682.064 163.787L682.074 163.797L682.084 163.807L682.771 163.08ZM686.323 171.624H687.323V171.615L687.323 171.606L686.323 171.624ZM686.323 201V202H687.323V201H686.323ZM677.395 201H676.395V202H677.395V201ZM677.395 174.792H678.395V174.776L678.394 174.761L677.395 174.792ZM675.859 169.704L675.015 170.241L675.03 170.263L675.045 170.285L675.859 169.704ZM671.059 167.4L671.114 166.402L671.087 166.4H671.059V167.4ZM664.819 169.512L664.215 168.715L664.208 168.72L664.201 168.726L664.819 169.512ZM660.595 174.984L661.5 175.41L661.504 175.4L660.595 174.984ZM658.963 182.088L657.963 182.063L657.963 182.076V182.088H658.963ZM658.963 201V202H659.963V201H658.963ZM650.035 201H649.035V202H650.035V201ZM650.035 174.792H651.035V174.776L651.034 174.761L650.035 174.792ZM648.403 169.704L647.577 170.267L647.592 170.289L647.608 170.31L648.403 169.704ZM643.507 167.4L643.562 166.402L643.535 166.4H643.507V167.4ZM637.267 169.512L637.885 170.298L637.885 170.298L637.267 169.512ZM633.043 174.984L632.133 174.568L632.129 174.579L632.124 174.59L633.043 174.984ZM631.603 201V202H632.603V201H631.603ZM622.675 201H621.675V202H622.675V201ZM622.675 161.256V160.256H621.675V161.256H622.675ZM629.647 161.342L630.415 170.27L632.407 170.098L631.639 161.17L629.647 161.342ZM632.305 169.737L631.921 168.969L630.133 169.863L630.517 170.631L632.305 169.737ZM631.925 169.856C633.321 167.003 635.281 164.778 637.808 163.153L636.726 161.471C633.877 163.302 631.677 165.813 630.129 168.976L631.925 169.856ZM637.799 163.159C640.378 161.539 643.327 160.72 646.675 160.72V158.72C642.983 158.72 639.66 159.629 636.735 161.465L637.799 163.159ZM646.675 160.72C648.811 160.72 650.663 161.056 652.25 161.702L653.004 159.85C651.135 159.088 649.019 158.72 646.675 158.72V160.72ZM652.25 161.702C653.834 162.348 655.1 163.275 656.074 164.477L657.628 163.219C656.426 161.733 654.876 160.612 653.004 159.85L652.25 161.702ZM656.108 164.517C657.116 165.638 657.78 167.055 658.073 168.812L660.045 168.484C659.698 166.401 658.89 164.618 657.594 163.179L656.108 164.517ZM658.544 167.791L658.064 168.079L659.093 169.793L659.573 169.505L658.544 167.791ZM659.461 169.407C660.915 166.68 662.902 164.578 665.426 163.075L664.403 161.357C661.552 163.054 659.315 165.432 657.697 168.465L659.461 169.407ZM665.432 163.072C668.04 161.495 670.742 160.72 673.555 160.72V158.72C670.352 158.72 667.294 159.609 664.398 161.36L665.432 163.072ZM673.555 160.72C677.259 160.72 680.053 161.776 682.064 163.787L683.478 162.373C681.009 159.904 677.659 158.72 673.555 158.72V160.72ZM682.084 163.807C684.17 165.777 685.263 168.358 685.323 171.642L687.323 171.606C687.255 167.85 685.98 164.735 683.458 162.353L682.084 163.807ZM685.323 171.624V201H687.323V171.624H685.323ZM686.323 200H677.395V202H686.323V200ZM678.395 201V174.792H676.395V201H678.395ZM678.394 174.761C678.326 172.563 677.773 170.663 676.673 169.123L675.045 170.285C675.865 171.433 676.336 172.925 676.395 174.823L678.394 174.761ZM676.703 169.167C675.573 167.392 673.607 166.54 671.114 166.402L671.003 168.398C673.119 168.516 674.353 169.2 675.015 170.241L676.703 169.167ZM671.059 166.4C668.534 166.4 666.242 167.177 664.215 168.715L665.423 170.309C667.108 169.031 668.976 168.4 671.059 168.4V166.4ZM664.201 168.726C662.274 170.24 660.77 172.195 659.685 174.568L661.504 175.4C662.468 173.293 663.78 171.6 665.437 170.298L664.201 168.726ZM659.69 174.558C658.603 176.868 658.031 179.373 657.963 182.063L659.963 182.113C660.023 179.683 660.539 177.452 661.5 175.41L659.69 174.558ZM657.963 182.088V201H659.963V182.088H657.963ZM658.963 200H650.035V202H658.963V200ZM651.035 201V174.792H649.035V201H651.035ZM651.034 174.761C650.965 172.55 650.373 170.64 649.198 169.098L647.608 170.31C648.48 171.456 648.977 172.938 649.035 174.823L651.034 174.761ZM649.229 169.141C648.037 167.392 646.059 166.54 643.562 166.402L643.451 168.398C645.563 168.516 646.849 169.2 647.577 170.267L649.229 169.141ZM643.507 166.4C640.924 166.4 638.625 167.174 636.649 168.726L637.885 170.298C639.493 169.034 641.354 168.4 643.507 168.4V166.4ZM636.649 168.726C634.722 170.24 633.218 172.195 632.133 174.568L633.952 175.4C634.916 173.293 636.228 171.6 637.885 170.298L636.649 168.726ZM632.124 174.59C631.108 176.961 630.603 179.496 630.603 182.184H632.603C632.603 179.752 633.058 177.487 633.962 175.378L632.124 174.59ZM630.603 182.184V201H632.603V182.184H630.603ZM631.603 200H622.675V202H631.603V200ZM623.675 201V161.256H621.675V201H623.675ZM622.675 162.256H630.643V160.256H622.675V162.256Z" fill="white" mask="url(#path-1-outside-1_1_116)"/>
<mask id="path-3-outside-2_1_116" maskUnits="userSpaceOnUse" x="21.5139" y="134" width="95" height="91" fill="black">
<rect fill="white" x="21.5139" y="134" width="95" height="91"/>
<path d="M85.2361 210.862H114.621V222H69.9513L85.2361 210.862ZM23.5046 179.226C23.5046 173.302 24.6105 167.733 26.8222 162.52C29.113 157.227 32.2726 152.567 36.3012 148.538C40.3297 144.431 44.9507 141.232 50.1641 138.941C55.4565 136.571 61.1438 135.386 67.2261 135.386C73.2294 135.386 78.8378 136.571 84.0512 138.941C89.3436 141.232 94.0041 144.431 98.0326 148.538C102.14 152.567 105.339 157.227 107.63 162.52C109.921 167.733 111.066 173.302 111.066 179.226C111.066 185.309 109.921 190.996 107.63 196.288C105.339 201.581 102.14 206.241 98.0326 210.27C94.0041 214.219 89.3436 217.34 84.0512 219.63C78.8378 221.842 73.2294 222.948 67.2261 222.948C61.1438 222.948 55.4565 221.842 50.1641 219.63C44.9507 217.419 40.3297 214.338 36.3012 210.388C32.2726 206.439 29.113 201.818 26.8222 196.525C24.6105 191.233 23.5046 185.467 23.5046 179.226ZM35.3533 179.345C35.3533 183.847 36.1827 188.073 37.8415 192.023C39.5003 195.893 41.791 199.33 44.7137 202.331C47.6364 205.333 51.033 207.663 54.9035 209.322C58.7741 210.981 62.9606 211.81 67.4631 211.81C71.8866 211.81 76.0336 210.981 79.9042 209.322C83.7747 207.663 87.1319 205.333 89.9755 202.331C92.8192 199.33 95.0705 195.893 96.7293 192.023C98.3881 188.073 99.2175 183.808 99.2175 179.226C99.2175 174.803 98.3881 170.616 96.7293 166.667C95.0705 162.717 92.7797 159.281 89.857 156.358C86.9344 153.357 83.5378 151.027 79.6672 149.368C75.7967 147.63 71.6496 146.761 67.2261 146.761C62.7236 146.761 58.5371 147.63 54.6666 149.368C50.796 151.027 47.3994 153.357 44.4767 156.358C41.5541 159.36 39.3028 162.836 37.723 166.785C36.1432 170.735 35.3533 174.921 35.3533 179.345Z"/>
</mask>
<path d="M85.2361 210.862H114.621V222H69.9513L85.2361 210.862ZM23.5046 179.226C23.5046 173.302 24.6105 167.733 26.8222 162.52C29.113 157.227 32.2726 152.567 36.3012 148.538C40.3297 144.431 44.9507 141.232 50.1641 138.941C55.4565 136.571 61.1438 135.386 67.2261 135.386C73.2294 135.386 78.8378 136.571 84.0512 138.941C89.3436 141.232 94.0041 144.431 98.0326 148.538C102.14 152.567 105.339 157.227 107.63 162.52C109.921 167.733 111.066 173.302 111.066 179.226C111.066 185.309 109.921 190.996 107.63 196.288C105.339 201.581 102.14 206.241 98.0326 210.27C94.0041 214.219 89.3436 217.34 84.0512 219.63C78.8378 221.842 73.2294 222.948 67.2261 222.948C61.1438 222.948 55.4565 221.842 50.1641 219.63C44.9507 217.419 40.3297 214.338 36.3012 210.388C32.2726 206.439 29.113 201.818 26.8222 196.525C24.6105 191.233 23.5046 185.467 23.5046 179.226ZM35.3533 179.345C35.3533 183.847 36.1827 188.073 37.8415 192.023C39.5003 195.893 41.791 199.33 44.7137 202.331C47.6364 205.333 51.033 207.663 54.9035 209.322C58.7741 210.981 62.9606 211.81 67.4631 211.81C71.8866 211.81 76.0336 210.981 79.9042 209.322C83.7747 207.663 87.1319 205.333 89.9755 202.331C92.8192 199.33 95.0705 195.893 96.7293 192.023C98.3881 188.073 99.2175 183.808 99.2175 179.226C99.2175 174.803 98.3881 170.616 96.7293 166.667C95.0705 162.717 92.7797 159.281 89.857 156.358C86.9344 153.357 83.5378 151.027 79.6672 149.368C75.7967 147.63 71.6496 146.761 67.2261 146.761C62.7236 146.761 58.5371 147.63 54.6666 149.368C50.796 151.027 47.3994 153.357 44.4767 156.358C41.5541 159.36 39.3028 162.836 37.723 166.785C36.1432 170.735 35.3533 174.921 35.3533 179.345Z" fill="white"/>
<path d="M85.2361 210.862V209.628H84.8341L84.5092 209.865L85.2361 210.862ZM114.621 210.862H115.855V209.628H114.621V210.862ZM114.621 222V223.234H115.855V222H114.621ZM69.9513 222L69.2245 221.002L66.1618 223.234H69.9513V222ZM26.8222 162.52L25.6895 162.03L25.686 162.038L26.8222 162.52ZM36.3012 148.538L37.1739 149.411L37.1823 149.403L36.3012 148.538ZM50.1641 138.941L50.6606 140.071L50.6685 140.067L50.1641 138.941ZM84.0512 138.941L83.5405 140.065L83.5507 140.069L83.561 140.074L84.0512 138.941ZM98.0326 148.538L97.1515 149.403L97.1598 149.411L97.1684 149.42L98.0326 148.538ZM107.63 162.52L106.497 163.01L106.5 163.016L107.63 162.52ZM107.63 196.288L108.763 196.779L108.763 196.779L107.63 196.288ZM98.0326 210.27L98.8967 211.151L98.8968 211.151L98.0326 210.27ZM84.0512 219.63L84.5333 220.767L84.5415 220.763L84.0512 219.63ZM50.1641 219.63L49.682 220.767L49.6882 220.769L50.1641 219.63ZM36.3012 210.388L37.1652 209.507L37.1652 209.507L36.3012 210.388ZM26.8222 196.525L25.6835 197.001L25.6865 197.009L25.6896 197.016L26.8222 196.525ZM37.8415 192.023L36.7035 192.501L36.707 192.509L37.8415 192.023ZM54.9035 209.322L54.4173 210.456L54.4173 210.456L54.9035 209.322ZM79.9042 209.322L79.418 208.188L79.418 208.188L79.9042 209.322ZM89.9755 202.331L89.0795 201.482L89.0795 201.482L89.9755 202.331ZM96.7293 192.023L97.8637 192.509L97.8672 192.501L96.7293 192.023ZM96.7293 166.667L97.8672 166.189L97.8672 166.189L96.7293 166.667ZM89.857 156.358L88.9728 157.22L88.9785 157.225L88.9843 157.231L89.857 156.358ZM79.6672 149.368L79.1617 150.494L79.1713 150.498L79.181 150.502L79.6672 149.368ZM54.6666 149.368L55.1528 150.502L55.1625 150.498L55.1721 150.494L54.6666 149.368ZM44.4767 156.358L45.361 157.22L45.361 157.22L44.4767 156.358ZM37.723 166.785L36.577 166.327L36.577 166.327L37.723 166.785ZM85.2361 212.097H114.621V209.628H85.2361V212.097ZM113.386 210.862V222H115.855V210.862H113.386ZM114.621 220.766H69.9513V223.234H114.621V220.766ZM70.6782 222.998L85.9629 211.86L84.5092 209.865L69.2245 221.002L70.6782 222.998ZM24.7389 179.226C24.7389 173.46 25.8144 168.056 27.9585 163.002L25.686 162.038C23.4066 167.411 22.2704 173.144 22.2704 179.226H24.7389ZM27.9549 163.01C30.1847 157.859 33.2567 153.328 37.1739 149.411L35.4284 147.666C31.2885 151.806 28.0413 156.596 25.6896 162.03L27.9549 163.01ZM37.1823 149.403C41.1019 145.406 45.5927 142.298 50.6606 140.071L49.6676 137.811C44.3087 140.166 39.5575 143.456 35.42 147.674L37.1823 149.403ZM50.6685 140.067C55.7945 137.772 61.309 136.621 67.2261 136.621V134.152C60.9787 134.152 55.1185 135.37 49.6597 137.815L50.6685 140.067ZM67.2261 136.621C73.062 136.621 78.4952 137.771 83.5405 140.065L84.5619 137.817C79.1804 135.371 73.3969 134.152 67.2261 134.152V136.621ZM83.561 140.074C88.7073 142.301 93.2349 145.409 97.1515 149.403L98.9138 147.674C94.7733 143.452 89.98 140.162 84.5415 137.808L83.561 140.074ZM97.1684 149.42C101.162 153.336 104.27 157.864 106.497 163.01L108.763 162.03C106.409 156.591 103.119 151.798 98.8968 147.657L97.1684 149.42ZM106.5 163.016C108.719 168.067 109.832 173.466 109.832 179.226H112.3C112.3 173.138 111.122 167.4 108.76 162.023L106.5 163.016ZM109.832 179.226C109.832 185.149 108.717 190.669 106.497 195.798L108.763 196.779C111.124 191.323 112.3 185.468 112.3 179.226H109.832ZM106.497 195.798C104.27 200.944 101.162 205.472 97.1684 209.389L98.8968 211.151C103.119 207.01 106.409 202.217 108.763 196.779L106.497 195.798ZM97.1686 209.389C93.2506 213.23 88.7175 216.266 83.5609 218.498L84.5415 220.763C89.9697 218.413 94.7576 215.209 98.8967 211.151L97.1686 209.389ZM83.5692 218.494C78.5173 220.637 73.0739 221.714 67.2261 221.714V224.182C73.385 224.182 79.1583 223.047 84.5332 220.766L83.5692 218.494ZM67.2261 221.714C61.2972 221.714 55.7727 220.636 50.64 218.491L49.6882 220.769C55.1403 223.048 60.9904 224.182 67.2261 224.182V221.714ZM50.6461 218.494C45.5743 216.342 41.083 213.348 37.1652 209.507L35.4371 211.27C39.5764 215.328 44.327 218.495 49.682 220.766L50.6461 218.494ZM37.1652 209.507C33.2532 205.672 30.1837 201.184 27.9549 196.035L25.6896 197.016C28.0423 202.451 31.292 207.206 35.4371 211.27L37.1652 209.507ZM27.961 196.049C25.8176 190.921 24.7389 185.318 24.7389 179.226H22.2704C22.2704 185.616 23.4034 191.545 25.6835 197.001L27.961 196.049ZM34.119 179.345C34.119 184.003 34.978 188.392 36.7035 192.501L38.9794 191.545C37.3874 187.754 36.5875 183.692 36.5875 179.345H34.119ZM36.707 192.509C38.4252 196.518 40.8005 200.082 43.8294 203.192L45.598 201.47C42.7816 198.578 40.5754 195.269 38.9759 191.537L36.707 192.509ZM43.8294 203.192C46.8661 206.311 50.3982 208.734 54.4173 210.456L55.3897 208.188C51.6678 206.592 48.4067 204.355 45.598 201.47L43.8294 203.192ZM54.4173 210.456C58.452 212.186 62.8052 213.044 67.4631 213.044V210.576C63.116 210.576 59.0962 209.776 55.3897 208.188L54.4173 210.456ZM67.4631 213.044C72.0452 213.044 76.3585 212.184 80.3904 210.456L79.418 208.188C75.7088 209.777 71.728 210.576 67.4631 210.576V213.044ZM80.3904 210.456C84.4126 208.733 87.91 206.306 90.8715 203.18L89.0795 201.482C86.3537 204.36 83.1368 206.594 79.418 208.188L80.3904 210.456ZM90.8715 203.18C93.8174 200.071 96.1485 196.511 97.8637 192.509L95.5948 191.537C93.9924 195.276 91.8211 198.589 89.0795 201.482L90.8715 203.18ZM97.8672 192.501C99.5939 188.39 100.452 183.96 100.452 179.226H97.9832C97.9832 183.655 97.1823 187.757 95.5913 191.545L97.8672 192.501ZM100.452 179.226C100.452 174.644 99.5917 170.295 97.8672 166.189L95.5913 167.145C97.1845 170.938 97.9832 174.962 97.9832 179.226H100.452ZM97.8672 166.189C96.1487 162.097 93.7697 158.526 90.7298 155.486L88.9843 157.231C91.7897 160.037 93.9922 163.337 95.5913 167.145L97.8672 166.189ZM90.7413 155.497C87.7047 152.379 84.1726 149.956 80.1534 148.233L79.181 150.502C82.903 152.097 86.1641 154.335 88.9728 157.22L90.7413 155.497ZM80.1727 148.242C76.1364 146.43 71.8163 145.527 67.2261 145.527V147.995C71.483 147.995 75.4569 148.83 79.1617 150.494L80.1727 148.242ZM67.2261 145.527C62.5602 145.527 58.2002 146.428 54.161 148.242L55.1721 150.494C58.8741 148.832 62.887 147.995 67.2261 147.995V145.527ZM54.1804 148.233C50.1612 149.956 46.6291 152.379 43.5924 155.497L45.361 157.22C48.1697 154.335 51.4308 152.097 55.1528 150.502L54.1804 148.233ZM43.5924 155.497C40.5553 158.617 38.2159 162.23 36.577 166.327L38.869 167.244C40.3897 163.442 42.5529 160.104 45.361 157.22L43.5924 155.497ZM36.577 166.327C34.9366 170.428 34.119 174.771 34.119 179.345H36.5875C36.5875 175.072 37.3498 171.042 38.869 167.244L36.577 166.327Z" fill="white" mask="url(#path-3-outside-2_1_116)"/>
<mask id="path-5-outside-3_1_116" maskUnits="userSpaceOnUse" x="710.57" y="134" width="95" height="91" fill="black">
<rect fill="white" x="710.57" y="134" width="95" height="91"/>
<path d="M741.848 210.862H712.463V222H757.132L741.848 210.862ZM803.579 179.226C803.579 173.302 802.473 167.733 800.261 162.52C797.971 157.227 794.811 152.567 790.783 148.538C786.754 144.431 782.133 141.232 776.92 138.941C771.627 136.571 765.94 135.386 759.858 135.386C753.854 135.386 748.246 136.571 743.032 138.941C737.74 141.232 733.08 144.431 729.051 148.538C724.944 152.567 721.744 157.227 719.454 162.52C717.163 167.733 716.018 173.302 716.018 179.226C716.018 185.309 717.163 190.996 719.454 196.288C721.744 201.581 724.944 206.241 729.051 210.27C733.08 214.219 737.74 217.34 743.032 219.63C748.246 221.842 753.854 222.948 759.858 222.948C765.94 222.948 771.627 221.842 776.92 219.63C782.133 217.419 786.754 214.338 790.783 210.388C794.811 206.439 797.971 201.818 800.261 196.525C802.473 191.233 803.579 185.467 803.579 179.226ZM791.73 179.345C791.73 183.847 790.901 188.073 789.242 192.023C787.583 195.893 785.293 199.33 782.37 202.331C779.447 205.333 776.051 207.663 772.18 209.322C768.31 210.981 764.123 211.81 759.621 211.81C755.197 211.81 751.05 210.981 747.179 209.322C743.309 207.663 739.952 205.333 737.108 202.331C734.264 199.33 732.013 195.893 730.354 192.023C728.696 188.073 727.866 183.808 727.866 179.226C727.866 174.803 728.696 170.616 730.354 166.667C732.013 162.717 734.304 159.281 737.227 156.358C740.149 153.357 743.546 151.027 747.416 149.368C751.287 147.63 755.434 146.761 759.858 146.761C764.36 146.761 768.547 147.63 772.417 149.368C776.288 151.027 779.684 153.357 782.607 156.358C785.53 159.36 787.781 162.836 789.361 166.785C790.941 170.735 791.73 174.921 791.73 179.345Z"/>
</mask>
<path d="M741.848 210.862H712.463V222H757.132L741.848 210.862ZM803.579 179.226C803.579 173.302 802.473 167.733 800.261 162.52C797.971 157.227 794.811 152.567 790.783 148.538C786.754 144.431 782.133 141.232 776.92 138.941C771.627 136.571 765.94 135.386 759.858 135.386C753.854 135.386 748.246 136.571 743.032 138.941C737.74 141.232 733.08 144.431 729.051 148.538C724.944 152.567 721.744 157.227 719.454 162.52C717.163 167.733 716.018 173.302 716.018 179.226C716.018 185.309 717.163 190.996 719.454 196.288C721.744 201.581 724.944 206.241 729.051 210.27C733.08 214.219 737.74 217.34 743.032 219.63C748.246 221.842 753.854 222.948 759.858 222.948C765.94 222.948 771.627 221.842 776.92 219.63C782.133 217.419 786.754 214.338 790.783 210.388C794.811 206.439 797.971 201.818 800.261 196.525C802.473 191.233 803.579 185.467 803.579 179.226ZM791.73 179.345C791.73 183.847 790.901 188.073 789.242 192.023C787.583 195.893 785.293 199.33 782.37 202.331C779.447 205.333 776.051 207.663 772.18 209.322C768.31 210.981 764.123 211.81 759.621 211.81C755.197 211.81 751.05 210.981 747.179 209.322C743.309 207.663 739.952 205.333 737.108 202.331C734.264 199.33 732.013 195.893 730.354 192.023C728.696 188.073 727.866 183.808 727.866 179.226C727.866 174.803 728.696 170.616 730.354 166.667C732.013 162.717 734.304 159.281 737.227 156.358C740.149 153.357 743.546 151.027 747.416 149.368C751.287 147.63 755.434 146.761 759.858 146.761C764.36 146.761 768.547 147.63 772.417 149.368C776.288 151.027 779.684 153.357 782.607 156.358C785.53 159.36 787.781 162.836 789.361 166.785C790.941 170.735 791.73 174.921 791.73 179.345Z" fill="white"/>
<path d="M741.848 210.862V209.628H742.25L742.574 209.865L741.848 210.862ZM712.463 210.862H711.229V209.628H712.463V210.862ZM712.463 222V223.234H711.229V222H712.463ZM757.132 222L757.859 221.002L760.922 223.234H757.132V222ZM800.261 162.52L801.394 162.03L801.398 162.038L800.261 162.52ZM790.783 148.538L789.91 149.411L789.901 149.403L790.783 148.538ZM776.92 138.941L776.423 140.071L776.415 140.067L776.92 138.941ZM743.032 138.941L743.543 140.065L743.533 140.069L743.523 140.074L743.032 138.941ZM729.051 148.538L729.932 149.403L729.924 149.411L729.915 149.42L729.051 148.538ZM719.454 162.52L720.586 163.01L720.584 163.016L719.454 162.52ZM719.454 196.288L718.321 196.779L718.321 196.779L719.454 196.288ZM729.051 210.27L728.187 211.151L728.187 211.151L729.051 210.27ZM743.032 219.63L742.55 220.767L742.542 220.763L743.032 219.63ZM776.92 219.63L777.402 220.767L777.396 220.769L776.92 219.63ZM790.783 210.388L789.918 209.507L789.918 209.507L790.783 210.388ZM800.261 196.525L801.4 197.001L801.397 197.009L801.394 197.016L800.261 196.525ZM789.242 192.023L790.38 192.501L790.377 192.509L789.242 192.023ZM772.18 209.322L772.666 210.456L772.666 210.456L772.18 209.322ZM747.179 209.322L747.666 208.188L747.666 208.188L747.179 209.322ZM737.108 202.331L738.004 201.482L738.004 201.482L737.108 202.331ZM730.354 192.023L729.22 192.509L729.216 192.501L730.354 192.023ZM730.354 166.667L729.216 166.189L729.216 166.189L730.354 166.667ZM737.227 156.358L738.111 157.22L738.105 157.225L738.099 157.231L737.227 156.358ZM747.416 149.368L747.922 150.494L747.912 150.498L747.903 150.502L747.416 149.368ZM772.417 149.368L771.931 150.502L771.921 150.498L771.912 150.494L772.417 149.368ZM782.607 156.358L781.723 157.22L781.723 157.22L782.607 156.358ZM789.361 166.785L790.507 166.327L790.507 166.327L789.361 166.785ZM741.848 212.097H712.463V209.628H741.848V212.097ZM713.697 210.862V222H711.229V210.862H713.697ZM712.463 220.766H757.132V223.234H712.463V220.766ZM756.405 222.998L741.121 211.86L742.574 209.865L757.859 221.002L756.405 222.998ZM802.345 179.226C802.345 173.46 801.269 168.056 799.125 163.002L801.398 162.038C803.677 167.411 804.813 173.144 804.813 179.226H802.345ZM799.129 163.01C796.899 157.859 793.827 153.328 789.91 149.411L791.655 147.666C795.795 151.806 799.042 156.596 801.394 162.03L799.129 163.01ZM789.901 149.403C785.982 145.406 781.491 142.298 776.423 140.071L777.416 137.811C782.775 140.166 787.526 143.456 791.664 147.674L789.901 149.403ZM776.415 140.067C771.289 137.772 765.775 136.621 759.858 136.621V134.152C766.105 134.152 771.965 135.37 777.424 137.815L776.415 140.067ZM759.858 136.621C754.022 136.621 748.588 137.771 743.543 140.065L742.522 137.817C747.903 135.371 753.687 134.152 759.858 134.152V136.621ZM743.523 140.074C738.376 142.301 733.849 145.409 729.932 149.403L728.17 147.674C732.31 143.452 737.104 140.162 742.542 137.808L743.523 140.074ZM729.915 149.42C725.922 153.336 722.814 157.864 720.586 163.01L718.321 162.03C720.675 156.591 723.965 151.798 728.187 147.657L729.915 149.42ZM720.584 163.016C718.364 168.067 717.252 173.466 717.252 179.226H714.783C714.783 173.138 715.961 167.4 718.324 162.023L720.584 163.016ZM717.252 179.226C717.252 185.149 718.366 190.669 720.586 195.798L718.321 196.779C715.96 191.323 714.783 185.468 714.783 179.226H717.252ZM720.586 195.798C722.814 200.944 725.922 205.472 729.915 209.389L728.187 211.151C723.965 207.01 720.675 202.217 718.321 196.779L720.586 195.798ZM729.915 209.389C733.833 213.23 738.366 216.266 743.523 218.498L742.542 220.763C737.114 218.413 732.326 215.209 728.187 211.151L729.915 209.389ZM743.514 218.494C748.566 220.637 754.01 221.714 759.858 221.714V224.182C753.699 224.182 747.925 223.047 742.55 220.766L743.514 218.494ZM759.858 221.714C765.786 221.714 771.311 220.636 776.444 218.491L777.396 220.769C771.943 223.048 766.093 224.182 759.858 224.182V221.714ZM776.438 218.494C781.509 216.342 786.001 213.348 789.918 209.507L791.647 211.27C787.507 215.328 782.757 218.495 777.402 220.766L776.438 218.494ZM789.918 209.507C793.83 205.672 796.9 201.184 799.129 196.035L801.394 197.016C799.041 202.451 795.792 207.206 791.647 211.27L789.918 209.507ZM799.123 196.049C801.266 190.921 802.345 185.318 802.345 179.226H804.813C804.813 185.616 803.68 191.545 801.4 197.001L799.123 196.049ZM792.965 179.345C792.965 184.003 792.106 188.392 790.38 192.501L788.104 191.545C789.696 187.754 790.496 183.692 790.496 179.345H792.965ZM790.377 192.509C788.658 196.518 786.283 200.082 783.254 203.192L781.486 201.47C784.302 198.578 786.508 195.269 788.108 191.537L790.377 192.509ZM783.254 203.192C780.218 206.311 776.686 208.734 772.666 210.456L771.694 208.188C775.416 206.592 778.677 204.355 781.486 201.47L783.254 203.192ZM772.666 210.456C768.632 212.186 764.278 213.044 759.621 213.044V210.576C763.968 210.576 767.987 209.776 771.694 208.188L772.666 210.456ZM759.621 213.044C755.039 213.044 750.725 212.184 746.693 210.456L747.666 208.188C751.375 209.777 755.356 210.576 759.621 210.576V213.044ZM746.693 210.456C742.671 208.733 739.174 206.306 736.212 203.18L738.004 201.482C740.73 204.36 743.947 206.594 747.666 208.188L746.693 210.456ZM736.212 203.18C733.266 200.071 730.935 196.511 729.22 192.509L731.489 191.537C733.091 195.276 735.263 198.589 738.004 201.482L736.212 203.18ZM729.216 192.501C727.49 188.39 726.632 183.96 726.632 179.226H729.1C729.1 183.655 729.901 187.757 731.492 191.545L729.216 192.501ZM726.632 179.226C726.632 174.644 727.492 170.295 729.216 166.189L731.492 167.145C729.899 170.938 729.1 174.962 729.1 179.226H726.632ZM729.216 166.189C730.935 162.097 733.314 158.526 736.354 155.486L738.099 157.231C735.294 160.037 733.091 163.337 731.492 167.145L729.216 166.189ZM736.342 155.497C739.379 152.379 742.911 149.956 746.93 148.233L747.903 150.502C744.181 152.097 740.92 154.335 738.111 157.22L736.342 155.497ZM746.911 148.242C750.947 146.43 755.267 145.527 759.858 145.527V147.995C755.601 147.995 751.627 148.83 747.922 150.494L746.911 148.242ZM759.858 145.527C764.523 145.527 768.883 146.428 772.923 148.242L771.912 150.494C768.21 148.832 764.197 147.995 759.858 147.995V145.527ZM772.903 148.233C776.922 149.956 780.455 152.379 783.491 155.497L781.723 157.22C778.914 154.335 775.653 152.097 771.931 150.502L772.903 148.233ZM783.491 155.497C786.528 158.617 788.868 162.23 790.507 166.327L788.215 167.244C786.694 163.442 784.531 160.104 781.723 157.22L783.491 155.497ZM790.507 166.327C792.147 170.428 792.965 174.771 792.965 179.345H790.496C790.496 175.072 789.734 171.042 788.215 167.244L790.507 166.327Z" fill="white" mask="url(#path-5-outside-3_1_116)"/>
<line x1="127" y1="216.5" x2="715" y2="216.5" stroke="white" stroke-width="13"/>
<line y1="-4" x2="75.2088" y2="-4" transform="matrix(0.734958 -0.678112 0.692029 0.721869 736.159 205)" stroke="white" stroke-width="8"/>
<line y1="-4" x2="70.1398" y2="-4" transform="matrix(-0.717574 -0.696482 0.710088 -0.704112 786.489 202.851)" stroke="white" stroke-width="8"/>
<path d="M574.502 73.0094L479.845 9.74407C473.267 5.347 465.531 3 457.618 3H228.223C219.589 3 211.187 5.79386 204.271 10.9641L103.712 86.1486C100.738 88.372 97.4693 90.1706 93.9994 91.4924L29.1736 116.187C13.6631 122.095 3.41286 136.98 3.41286 153.577L3.41286 159C3.41286 160.992 -5.83851 232.438 63.2457 235.467C63.7744 235.491 63.8867 235.501 64.4159 235.499C81.234 235.432 693.536 233 769.437 233C822.797 233 825.122 180.119 821.53 147.687C819.84 132.432 807.619 121.153 792.548 118.248L589.156 79.03C583.919 78.0202 578.937 75.9732 574.502 73.0094Z" stroke="white" stroke-width="5"/>
<path d="M222.673 28.9423C224.823 27.3559 227.424 26.5 230.096 26.5H322.934C329.837 26.5 335.434 32.0964 335.434 39V87C335.434 93.9036 329.837 99.5 322.934 99.5H165.053C152.991 99.5 147.926 84.1044 157.631 76.9423L222.673 28.9423ZM367.237 39C367.237 32.0964 372.833 26.5 379.737 26.5H458.18C460.712 26.5 463.184 27.2688 465.269 28.7046L534.98 76.7046C545.086 83.6637 540.162 99.5 527.891 99.5H379.737C372.833 99.5 367.237 93.9036 367.237 87V39Z" stroke="white" stroke-width="5"/>
</svg>
